<?xml version="1.0" encoding="utf-8"?><svg xmlns="http://www.w3.org/2000/svg" xmlns:xlink="http://www.w3.org/1999/xlink"><symbol viewBox="0 0 192.66 106.08" id="arrow-down" xmlns="http://www.w3.org/2000/svg"><g data-name="Слой 2"><path d="M103.2 103.26l86.61-86.64a9.73 9.73 0 10-13.74-13.77L96.33 82.62 16.59 2.86A9.73 9.73 0 002.84 16.63l86.61 86.64a9.82 9.82 0 0013.75 0z" data-name="Слой 1"/></g></symbol><symbol viewBox="0 0 792.049 792.049" id="arrow-next" xmlns="http://www.w3.org/2000/svg"><path d="M622.955 342.127L268.424 20.521c-27.36-27.36-71.677-27.36-99.037 0s-27.36 71.676 0 99.037l304.749 276.468-304.749 276.466c-27.36 27.359-27.36 71.676 0 99.036s71.677 27.36 99.037 0l354.531-321.606c14.783-14.783 21.302-34.538 20.084-53.897 1.186-19.36-5.301-39.114-20.084-53.898z"/></symbol><symbol viewBox="0 0 451.847 451.847" id="arrow-point-left" xmlns="http://www.w3.org/2000/svg"><path d="M97.141 225.92c0-8.095 3.091-16.192 9.259-22.366L300.689 9.27c12.359-12.359 32.397-12.359 44.751 0 12.354 12.354 12.354 32.388 0 44.748L173.525 225.92l171.903 171.909c12.354 12.354 12.354 32.391 0 44.744-12.354 12.365-32.386 12.365-44.745 0l-194.29-194.281c-6.167-6.177-9.252-14.274-9.252-22.372z"/></symbol><symbol viewBox="0 0 451.846 451.847" id="arrow-point-right" xmlns="http://www.w3.org/2000/svg"><path d="M345.441 248.292L151.154 442.573c-12.359 12.365-32.397 12.365-44.75 0-12.354-12.354-12.354-32.391 0-44.744L278.318 225.92 106.409 54.017c-12.354-12.359-12.354-32.394 0-44.748 12.354-12.359 32.391-12.359 44.75 0l194.287 194.284c6.177 6.18 9.262 14.271 9.262 22.366 0 8.099-3.091 16.196-9.267 22.373z"/></symbol><symbol viewBox="0 0 512 512" id="burger" xmlns="http://www.w3.org/2000/svg"><path d="M464.883 64.267H47.117C21.137 64.267 0 85.403 0 111.416c0 25.98 21.137 47.117 47.117 47.117h417.766c25.98 0 47.117-21.137 47.117-47.117 0-26.013-21.137-47.149-47.117-47.149zm0 144.6H47.117C21.137 208.867 0 230.003 0 256.016c0 25.98 21.137 47.117 47.117 47.117h417.766c25.98 0 47.117-21.137 47.117-47.117 0-26.013-21.137-47.149-47.117-47.149zm0 144.6H47.117C21.137 353.467 0 374.604 0 400.616c0 25.98 21.137 47.117 47.117 47.117h417.766c25.98 0 47.117-21.137 47.117-47.117 0-26.012-21.137-47.149-47.117-47.149z"/></symbol><symbol viewBox="0 0 384 384" id="call" xmlns="http://www.w3.org/2000/svg"><g data-name="Слой 2"><path d="M353.19 252.05a218 218 0 01-68.47-10.9c-10.72-3.66-23.9-.31-30.44 6.41l-43.18 32.6c-50.1-26.73-80.91-57.57-107.28-107.26l31.64-42.06a31 31 0 007.63-31.44 218.39 218.39 0 01-10.94-68.59A30.85 30.85 0 00101.33 0H30.81A30.84 30.84 0 000 30.81C0 225.56 158.44 384 353.19 384A30.84 30.84 0 00384 353.19v-70.33a30.85 30.85 0 00-30.81-30.81z" data-name="Capa 1"/></g></symbol><symbol viewBox="0 0 492.61 512" id="cart" xmlns="http://www.w3.org/2000/svg"><g data-name="Слой 2"><path class="agcls-1" d="M184.89 512a64.65 64.65 0 1164.65-64.64A64.72 64.72 0 01184.89 512zm0-90.5a25.86 25.86 0 1025.86 25.86 25.89 25.89 0 00-25.86-25.86zM376.24 512a64.65 64.65 0 1164.65-64.64A64.72 64.72 0 01376.24 512zm0-90.5a25.86 25.86 0 1025.86 25.86 25.89 25.89 0 00-25.86-25.86zM428 353.62H156.45a19.41 19.41 0 01-19-15.63L80.51 50.32 15.9 38.48a19.39 19.39 0 117-38.15l77.57 14.22A19.39 19.39 0 01116 29.86L133.63 119h339.58a19.4 19.4 0 0118.9 23.76l-45.25 195.82A19.4 19.4 0 01428 353.62zm-255.62-38.79h240.15l36.29-157.09H141.3z" data-name="Capa 1"/></g></symbol><symbol viewBox="0 0 384 281.17" id="check" xmlns="http://www.w3.org/2000/svg"><g data-name="Слой 2"><path d="M337.94 0l-189 189.05L46.06 86.22 0 132.28l148.89 148.89L384 46.06z" data-name="Слой 1"/></g></symbol><symbol viewBox="0 0 329.269 329" id="close" xmlns="http://www.w3.org/2000/svg"><path d="M194.8 164.77L323.013 36.555c8.343-8.34 8.343-21.825 0-30.164-8.34-8.34-21.825-8.34-30.164 0L164.633 134.605 36.422 6.391c-8.344-8.34-21.824-8.34-30.164 0-8.344 8.34-8.344 21.824 0 30.164l128.21 128.215L6.259 292.984c-8.344 8.34-8.344 21.825 0 30.164a21.266 21.266 0 0015.082 6.25c5.46 0 10.922-2.09 15.082-6.25l128.21-128.214 128.216 128.214a21.273 21.273 0 0015.082 6.25c5.46 0 10.922-2.09 15.082-6.25 8.343-8.34 8.343-21.824 0-30.164zm0 0"/></symbol><symbol viewBox="0 0 357 357" id="close2" xmlns="http://www.w3.org/2000/svg"><path d="M357 35.7L321.3 0 178.5 142.8 35.7 0 0 35.7l142.8 142.8L0 321.3 35.7 357l142.8-142.8L321.3 357l35.7-35.7-142.8-142.8z"/></symbol><symbol viewBox="0 0 5.53 6.57" id="compare" xmlns="http://www.w3.org/2000/svg"><g data-name="Слой 2"><path d="M0 4.06h.98v2.51H0zM1.51 0h.98v6.57h-.98zm1.5 2.53h.98v4.04h-.98zM4.55 1h.98v5.57h-.98z" data-name="Capa 1"/></g></symbol><symbol viewBox="0 0 55.751 55.751" id="down-arrow" xmlns="http://www.w3.org/2000/svg"><path d="M31.836 43.006c.282-.281.518-.59.725-.912L54.17 20.485a5.403 5.403 0 000-7.638 5.403 5.403 0 00-7.638 0l-18.608 18.61L9.217 12.753A5.4 5.4 0 000 16.571a5.363 5.363 0 001.582 3.816l21.703 21.706c.207.323.445.631.729.913a5.367 5.367 0 003.91 1.572 5.37 5.37 0 003.912-1.572z"/></symbol><symbol viewBox="0 0 477.53 443.74" id="favorite" xmlns="http://www.w3.org/2000/svg"><g data-name="Слой 2"><path d="M342.91 0a131 131 0 00-95.68 41.7l-8.43 8.91-8.43-8.91a130.58 130.58 0 00-184.54-6.78c-2.34 2.17-4.6 4.44-6.78 6.78a146.45 146.45 0 000 199.13l187.36 197.58a17.07 17.07 0 0024.13.66c.22-.22.44-.43.65-.66l187.29-197.58a146.43 146.43 0 000-199.12A130.82 130.82 0 00342.91 0zm70.86 217.33l-175 184.54-175-184.54a111.91 111.91 0 010-152.15 96.45 96.45 0 01136.3-5.48q2.85 2.63 5.49 5.48l20.8 21.95a17.58 17.58 0 0024.78 0L272 65.2a96.45 96.45 0 01136.3-5.49q2.85 2.64 5.49 5.49c40.12 43 40.42 109.42 0 152.13z" data-name="Capa 1"/></g></symbol><symbol viewBox="0 0 512 512" id="filter" xmlns="http://www.w3.org/2000/svg"><path d="M90.5 0h-30v362h-30v90h30v60h30v-60h30v-90h-30zm361 362V0h-30v362h-30v90h30v60h30v-60h30v-90zM331.5 0h-30v222h-30v90h30v200h30V312h30v-90h-30zm-121 0h-30v53.652h-30v90h30V512h30V143.652h30v-90h-30z"/></symbol><symbol viewBox="0 0 16 16" id="info" xmlns="http://www.w3.org/2000/svg"><path d="M7 5h3v11H7V5zm3.5-3a2 2 0 11-3.999.001A2 2 0 0110.5 2z"/></symbol><symbol viewBox="0 0 443.52 443.52" id="left" xmlns="http://www.w3.org/2000/svg"><path d="M143.492 221.863L336.226 29.129c6.663-6.664 6.663-17.468 0-24.132-6.665-6.662-17.468-6.662-24.132 0l-204.8 204.8c-6.662 6.664-6.662 17.468 0 24.132l204.8 204.8c6.78 6.548 17.584 6.36 24.132-.42 6.387-6.614 6.387-17.099 0-23.712L143.492 221.863z"/></symbol><symbol viewBox="0 0 512 512" id="left-arrow" xmlns="http://www.w3.org/2000/svg"><path d="M492 236H68.442l70.164-69.824c7.829-7.792 7.859-20.455.067-28.284-7.792-7.83-20.456-7.859-28.285-.068l-104.504 104-.018.019c-7.809 7.792-7.834 20.496-.002 28.314l.018.019 104.504 104c7.828 7.79 20.492 7.763 28.285-.068 7.792-7.829 7.762-20.492-.067-28.284L68.442 276H492c11.046 0 20-8.954 20-20s-8.954-20-20-20z"/></symbol><symbol viewBox="0 0 512 512" id="like" xmlns="http://www.w3.org/2000/svg"><path d="M376 30c-27.783 0-53.255 8.804-75.707 26.168-21.525 16.647-35.856 37.85-44.293 53.268-8.437-15.419-22.768-36.621-44.293-53.268C189.255 38.804 163.783 30 136 30 58.468 30 0 93.417 0 177.514c0 90.854 72.943 153.015 183.369 247.118 18.752 15.981 40.007 34.095 62.099 53.414C248.38 480.596 252.12 482 256 482s7.62-1.404 10.532-3.953c22.094-19.322 43.348-37.435 62.111-53.425C439.057 330.529 512 268.368 512 177.514 512 93.417 453.532 30 376 30z"/></symbol><symbol viewBox="0 0 341.33 512" id="location" xmlns="http://www.w3.org/2000/svg"><g data-name="Слой 2"><path d="M170.67 0C76.56 0 0 76.56 0 170.67a170.92 170.92 0 0020.49 81.1L161.33 506.5a10.67 10.67 0 0018.67 0l140.9-254.81a171 171 0 0020.43-81C341.33 76.56 264.77 0 170.67 0zm0 256A85.34 85.34 0 11256 170.67 85.43 85.43 0 01170.67 256z" data-name="Layer 1"/></g></symbol><symbol viewBox="0 0 512.01 512" id="lupe" xmlns="http://www.w3.org/2000/svg"><g data-name="Слой 2"><path d="M505.75 475.58L360.15 330a201.67 201.67 0 0045.18-127.31C405.33 90.92 314.41 0 202.67 0S0 90.92 0 202.67s90.92 202.66 202.67 202.66A201.67 201.67 0 00330 360.15l145.6 145.6a21.33 21.33 0 0030.17-30.17zM202.67 362.67c-88.24 0-160-71.77-160-160s71.76-160 160-160 160 71.76 160 160-71.77 160-160 160z" data-name="Capa 1"/></g></symbol><symbol viewBox="0 0 384 384" id="menu" xmlns="http://www.w3.org/2000/svg"><path d="M0 277.333h384V320H0zm0-106.666h384v42.667H0zM0 64h384v42.667H0z"/></symbol><symbol viewBox="0 0 341.333 341.333" id="menu-icon" xmlns="http://www.w3.org/2000/svg"><path d="M0 277.333h341.333V320H0zm0-128h341.333V192H0zm0-128h341.333V64H0z"/></symbol><symbol viewBox="0 0 106.08 192.66" id="next" xmlns="http://www.w3.org/2000/svg"><g data-name="Слой 2"><path d="M103.26 89.45L16.62 2.84A9.73 9.73 0 002.85 16.59l79.77 79.74-79.76 79.73a9.73 9.73 0 0013.77 13.75l86.64-86.61a9.82 9.82 0 000-13.75z" data-name="Слой 1"/></g></symbol><symbol viewBox="0 0 133.78 256.39" id="next-left" xmlns="http://www.w3.org/2000/svg"><g data-name="Слой 2"><path d="M128.2 256.39a5.57 5.57 0 003.94-9.52L13.46 128.2 132.14 9.53a5.58 5.58 0 00-7.89-7.9L1.63 124.25a5.58 5.58 0 000 7.88l122.62 122.62a5.59 5.59 0 003.95 1.64z" data-name="Capa 1"/></g></symbol><symbol viewBox="0 0 133.78 256.39" id="next-right" xmlns="http://www.w3.org/2000/svg"><g data-name="Слой 2"><path d="M5.58 256.39a5.57 5.57 0 01-3.94-9.52L120.32 128.2 1.64 9.53a5.58 5.58 0 017.89-7.9l122.62 122.62a5.58 5.58 0 010 7.88L9.53 254.75a5.59 5.59 0 01-3.95 1.64z" data-name="Capa 1"/></g></symbol><symbol viewBox="0 0 320.648 320.648" id="percent" xmlns="http://www.w3.org/2000/svg"><path d="M139.219 124.494c12.369-13.416 19.184-31.412 19.184-50.678C158.403 37.134 132.202 0 82.116 0 58.807 0 39.143 8.006 25.247 23.152 12.938 36.57 6.161 54.562 6.161 73.816c0 36.686 26.09 73.818 75.955 73.818 23.396.001 43.146-7.999 57.103-23.14zM82.116 34.322c27.443 0 39.941 20.486 39.941 39.52 0 10.354-3.484 19.939-9.816 26.986-7.064 7.871-17.33 12.033-29.68 12.033-28.137 0-40.955-20.484-40.955-39.516 0-19.421 12.528-39.023 40.51-39.023zm182.158-5.846c-4.539.082-10.736 2.912-13.772 6.287L25.186 285.275c-3.035 3.377-.885 8.111 3.654 8.111h29.49c4.539 0 10.73-2.768 13.76-6.148L296.013 36.777c3.029-3.383 2.828-8.887-4.672-8.885l-27.067.584zm-24.627 147.346c-22.859 0-42.15 7.858-55.783 22.715-12.074 13.158-18.726 30.811-18.726 49.699 0 35.984 25.594 72.412 74.51 72.412 22.957 0 42.326-7.85 56.02-22.701 12.135-13.162 18.818-30.816 18.818-49.711-.001-35.984-25.706-72.414-74.839-72.414zm.442 111.596c-27.375 0-39.848-20.557-39.848-39.648 0-10.397 3.482-20.018 9.809-27.092 7.053-7.894 17.287-12.066 29.598-12.066 27.377 0 39.844 20.553 39.844 39.65 0 10.395-3.483 20.018-9.805 27.092-7.055 7.892-17.29 12.064-29.598 12.064z"/></symbol><symbol viewBox="0 0 512 448" id="res0" xmlns="http://www.w3.org/2000/svg"><defs><clipPath id="baa"><path d="M0 0h512v449H0z"/></clipPath></defs><g data-name="Слой 2"><g data-name="Слой 1"><g clip-path="url(#baa)"><path class="bacls-3" d="M20 389.73A30 30 0 000 418v20a10 10 0 0010 10h180a10 10 0 0010-10v-20a30 30 0 00-20-28.27v-38.81L382.64 210a10.09 10.09 0 015.94-2H392v30a10 10 0 0010 10h100a10 10 0 0010-10v-80a30 30 0 00-30-30h-96.15a30.14 30.14 0 00-11 2.1L180 203.55V178a30 30 0 00-20-28.27v-25.49l121-59.4A34.2 34.2 0 00258.1.89L78.82 41.09A49.8 49.8 0 0040 89.82v59.91A30 30 0 0020 178v75a10 10 0 0020 0v-75a10 10 0 0110-10h100a10 10 0 0110 10v210H40v-55a10 10 0 00-20 0v56.73zM60 128h80v20H60zm220-93.79a14.22 14.22 0 01-7.85 12.71L147.68 108H60V89.82a29.86 29.86 0 0123.26-29.23l179.28-40.2A14.21 14.21 0 01280 34.21zM412 208h80v20h-80zM180 326.56V224.92l202-76.13.15-.06a10.21 10.21 0 013.75-.73H482a10 10 0 0110 10v30H388.58a30.13 30.13 0 00-17.69 5.78zM20 418a10 10 0 0110-10h140a10 10 0 0110 10v10H20z"/></g><path class="bacls-3" d="M452 328a10 10 0 0010-10v-40a10 10 0 00-20 0v40a10 10 0 0010 10zm10 30a10 10 0 00-20 0v40a10 10 0 0020 0zm40-30a10 10 0 0010-10v-40a10 10 0 00-20 0v40a10 10 0 0010 10zm0 80a10 10 0 0010-10v-40a10 10 0 00-20 0v40a10 10 0 0010 10zm-100-80a10 10 0 0010-10v-40a10 10 0 00-20 0v40a10 10 0 0010 10zm10 30a10 10 0 00-20 0v40a10 10 0 0020 0zM30 283a10 10 0 1010 10 10 10 0 00-10-10z"/></g></g></symbol><symbol viewBox="0 0 384 384" id="res1" xmlns="http://www.w3.org/2000/svg"><g data-name="Слой 2"><path d="M372.75 0H11.25A11.25 11.25 0 000 11.25v45A11.25 11.25 0 0011.25 67.5H22.5v33.75a11.25 11.25 0 0011.25 11.25h3v206.63a64.88 64.88 0 00129.75 0V112.5h3a11.25 11.25 0 0011.25-11.25V67.5h22.5v33.75a11.25 11.25 0 0011.25 11.25h3v206.63a64.88 64.88 0 00129.75 0V112.5h3a11.25 11.25 0 0011.25-11.25V67.5h11.25A11.25 11.25 0 00384 56.25v-45A11.25 11.25 0 00372.75 0zM144 319.13a42.38 42.38 0 01-84.75 0V112.5H144zm180.75 0a42.38 42.38 0 01-84.75 0V112.5h84.75zM158.25 90H45V67.5h113.25zM339 90H225.75V67.5H339zm22.5-45h-339V22.5h339z" data-name="Слой 1"/></g></symbol><symbol viewBox="0 0 384 383.89" id="res2" xmlns="http://www.w3.org/2000/svg"><defs><clipPath id="bca" transform="translate(0 -.05)"><path d="M0 0h384v384H0z"/></clipPath></defs><g data-name="Слой 2"><g data-name="Слой 1"><path class="bccls-2" d="M215 279.35a11.29 11.29 0 10-22.49 1.6l.75 10.87a11.292 11.292 0 0022.53-1.56zm53.55-27.8a11.292 11.292 0 10-20.66 9.12l4.11 9.38a11.301 11.301 0 1020.69-9.1zm52.28-27.25a11.29 11.29 0 00-16.34 15.58l7.53 7.89a11.29 11.29 0 1016.34-15.58zM201.55 337.69a11.29 11.29 0 00-10.73 11.83l.55 11.26a11.293 11.293 0 0022.56-1.1l-.55-11.26a11.31 11.31 0 00-11.83-10.73zm65.6-15.85a11.29 11.29 0 10-21.65 6.41l3 10.17a11.29 11.29 0 1021.65-6.42z"/><g clip-path="url(#bca)"><path class="bccls-2" d="M320.21 295.29a11.291 11.291 0 00-19.34 11.66l5.48 9.09a11.294 11.294 0 0019.34-11.67zm60.51-18.05l-8-8a11.29 11.29 0 10-16 15.92l7.94 8a11.29 11.29 0 0016-15.91z"/></g><path class="bccls-2" d="M324 149.95l-3.42-7.67a30.13 30.13 0 00-32.17-17.5l-2.11-4.74a65.43 65.43 0 00-70.17-38.09l-7.42-16.85A109 109 0 000 108.95V372.6a11.29 11.29 0 0011.29 11.35h45.16a11.3 11.3 0 0011.3-11.3v-263.7a41.23 41.23 0 0179-16.61l8 18.09a65.49 65.49 0 00-15.76 75.22l2.11 4.73a30.11 30.11 0 00-8.5 35.61l3.42 7.68A33.36 33.36 0 00180 250.61l127-56.55a33.41 33.41 0 0017-44.11zm-58.33-20.73l1.69 3.79-106.1 47.23-1.69-3.79a42.94 42.94 0 0121.82-56.82l27.41-12.18a42.92 42.92 0 0156.84 21.81zM109 45.17a63.88 63.88 0 00-63.84 63.78v252.36H22.58V108.95a86.4 86.4 0 01165.47-34.78l6.55 14.89-20.6 9.19-6.6-15A63.83 63.83 0 00109 45.17zm188.9 128.26l-127.07 56.52a10.8 10.8 0 01-14.26-5.48l-3.41-7.68a7.52 7.52 0 013.81-9.94l133-59.21a7.55 7.55 0 019.95 3.82l3.41 7.68a10.8 10.8 0 01-5.47 14.25z"/></g></g></symbol><symbol viewBox="0 0 326.14 384" id="res3" xmlns="http://www.w3.org/2000/svg"><g data-name="Слой 2"><path class="bdcls-1" d="M126.73 10C113 3.54 95 0 76.12 0S39.25 3.54 25.51 10C9.06 17.68 0 28.92 0 41.63v300.75c0 12.72 9.05 24 25.48 31.66 13.71 6.42 31.7 10 50.64 10s36.93-3.54 50.64-10c16.44-7.69 25.49-18.94 25.49-31.66V40.95c-.31-12.43-9.34-23.41-25.5-31zM35.05 30.35c10.66-5 25.63-7.85 41.07-7.85s30.41 2.86 41.07 7.85c8.67 4.06 12.56 8.59 12.56 11.28s-3.89 7.21-12.56 11.27c-10.66 5-25.63 7.85-41.07 7.85s-30.41-2.86-41.07-7.85c-8.67-4.06-12.55-8.59-12.55-11.27s3.88-7.22 12.55-11.28zM76.12 361.5c-33.26 0-53.62-12.38-53.62-19.12V71.78c1 .51 2 1 3 1.49 13.74 6.44 31.72 10 50.61 10s36.87-3.54 50.61-10c1-.48 2-1 3-1.49v270.6c0 6.74-20.36 19.12-53.63 19.12zm250.02-241.98c0-12.71-9.06-24-25.51-31.66-13.74-6.43-31.72-10-50.61-10s-36.87 3.54-50.61 10c-16.46 7.71-25.52 19-25.52 31.66v222.86c0 12.72 9.05 24 25.48 31.66 13.72 6.42 31.7 10 50.65 10s36.92-3.54 50.64-10c16.43-7.69 25.48-18.94 25.48-31.66V119.52zM209 108.24c10.66-5 25.63-7.85 41.07-7.85s30.4 2.86 41.07 7.85c8.67 4.07 12.55 8.59 12.55 11.27s-3.88 7.21-12.55 11.28c-10.67 5-25.63 7.85-41.07 7.85s-30.41-2.86-41.07-7.85c-8.67-4.07-12.56-8.59-12.56-11.28s3.88-7.2 12.56-11.27zm41 253.26c-33.27 0-53.63-12.38-53.63-19.12V149.67c1 .51 2 1 3 1.49 13.74 6.44 31.71 10 50.61 10s36.87-3.54 50.61-10c1-.48 2-1 3-1.49v192.71c0 6.74-20.36 19.12-53.62 19.12z" data-name="Слой 1"/></g></symbol><symbol viewBox="0 0 384 384" id="res4" xmlns="http://www.w3.org/2000/svg"><defs><clipPath id="bea"><path d="M0 0h384v384H0z"/></clipPath></defs><g data-name="Слой 2"><g data-name="Слой 1"><g clip-path="url(#bea)"><path class="becls-3" d="M373 219.07a27.08 27.08 0 010-54.14 11.26 11.26 0 0010.74-13.57 194.27 194.27 0 00-27.45-66.21 11.25 11.25 0 00-17.19-2 27.08 27.08 0 01-38.28-38.28 11.25 11.25 0 00-2-17.18A194.35 194.35 0 00232.63.24 11.25 11.25 0 00219.07 11a27.08 27.08 0 01-54.14 0A11.26 11.26 0 00151.36.24a194.3 194.3 0 00-66.2 27.45 11.24 11.24 0 00-2 17.18 27.08 27.08 0 01-38.29 38.28 11.26 11.26 0 00-17.18 2A194.3 194.3 0 00.24 151.36 11.26 11.26 0 0011 164.93a27.08 27.08 0 010 54.14A11.25 11.25 0 00.24 232.63a194.52 194.52 0 0027.45 66.21 11.25 11.25 0 0017.18 2 27.08 27.08 0 0138.28 38.29 11.25 11.25 0 002 17.18 194.19 194.19 0 0066.21 27.45 11.42 11.42 0 002.32.24 11.26 11.26 0 0011.25-11 27.08 27.08 0 0154.14 0 11.25 11.25 0 0013.57 10.74 194.3 194.3 0 0066.2-27.45 11.26 11.26 0 002-17.18 27.07 27.07 0 0138.27-38.28 11.25 11.25 0 0017.19-2 194.22 194.22 0 0027.45-66.2A11.25 11.25 0 00373 219.07zm-29.53 57.52a49.53 49.53 0 00-66.9 66.9A171.29 171.29 0 01239.31 359a49.54 49.54 0 00-94.63 0 171 171 0 01-37.27-15.46 49.54 49.54 0 00-66.9-66.9 171.2 171.2 0 01-15.46-37.28 49.54 49.54 0 000-94.63 171.21 171.21 0 0115.46-37.27 49.54 49.54 0 0066.9-66.9 171.41 171.41 0 0137.27-15.46 49.54 49.54 0 0094.63 0 171.49 171.49 0 0137.28 15.46 49.54 49.54 0 0066.9 66.9A171 171 0 01359 144.68a49.54 49.54 0 000 94.63 171.29 171.29 0 01-15.46 37.28z"/></g><path class="becls-3" d="M211.15 113.79c-10.4-10.6-14.61-12.54-19.15-12.54s-8.75 1.94-19.16 12.54a258.33 258.33 0 00-20.25 23.58c-13.16 17.24-28.84 42-28.84 62.13a68.25 68.25 0 00136.5 0c0-20.12-15.68-44.89-28.84-62.13a258.37 258.37 0 00-20.26-23.58zM192 245.25a45.8 45.8 0 01-45.75-45.75c0-9.95 7.93-26.43 21.76-45.2a225.36 225.36 0 0124-27.8 225.48 225.48 0 0124 27.8c13.83 18.77 21.77 35.25 21.77 45.2A45.81 45.81 0 01192 245.25z"/></g></g></symbol><symbol viewBox="0 0 337.5 384" id="res5" xmlns="http://www.w3.org/2000/svg"><g data-name="Слой 2"><g data-name="Слой 1"><path class="bfcls-1" d="M213.75 113.25H202.5v-22.5h11.25A11.25 11.25 0 00225 79.5V33.75A33.79 33.79 0 00191.25 0h-135A33.79 33.79 0 0022.5 33.75V79.5a11.25 11.25 0 0011.25 11.25H45v22.5H33.75A33.79 33.79 0 000 147v203.25A33.79 33.79 0 0033.75 384h180a33.79 33.79 0 0033.75-33.75V147a33.79 33.79 0 00-33.75-33.75zM45 33.75A11.27 11.27 0 0156.25 22.5H67.5v11.25a11.25 11.25 0 0022.5 0V22.5h22.5v11.25a11.25 11.25 0 0022.5 0V22.5h22.5v11.25a11.25 11.25 0 0022.5 0V22.5h11.25a11.27 11.27 0 0111.25 11.25v34.5H45zm180 316.5a11.27 11.27 0 01-11.25 11.25h-180a11.27 11.27 0 01-11.25-11.25V147a11.27 11.27 0 0111.25-11.25h22.5A11.25 11.25 0 0067.5 124.5V90.75H180v33.75a11.25 11.25 0 0011.25 11.25h22.5A11.27 11.27 0 01225 147z"/><path class="bfcls-1" d="M168.75 180.75h-90A33.79 33.79 0 0045 214.5v90a11.25 11.25 0 0011.25 11.25h135a11.25 11.25 0 0011.25-11.25v-90a33.79 33.79 0 00-33.75-33.75zM180 293.25H67.5V214.5a11.27 11.27 0 0111.25-11.25h90A11.27 11.27 0 01180 214.5zm123.75 23.25a33.75 33.75 0 1033.75 33.75 33.79 33.79 0 00-33.75-33.75zm0 45A11.25 11.25 0 11315 350.25a11.27 11.27 0 01-11.25 11.25zm0-67.5A33.75 33.75 0 10270 260.25 33.79 33.79 0 00303.75 294zm0-45a11.25 11.25 0 11-11.25 11.25A11.27 11.27 0 01303.75 249z"/></g></g></symbol><symbol viewBox="0 0 387 330.31" id="res6" xmlns="http://www.w3.org/2000/svg"><g data-name="Слой 2"><g data-name="Слой 1"><path class="bgcls-1" d="M378 47.16a7.5 7.5 0 007.49-7.5V9A7.5 7.5 0 00378 1.5h-87.27c-13.37 0-24.87 3.56-33.26 10.29-7 5.6-15.31 16.34-15.31 35.69v21.37h-1.88a7.5 7.5 0 00-7.5 7.5v32h-14.1v-2A14.26 14.26 0 00204.42 92h-20.73a14.25 14.25 0 00-14.26 14.26v2H150V98.08a25.27 25.27 0 00-25.25-25.23H106a25.27 25.27 0 00-25.25 25.23v10.58a86.7 86.7 0 00-.06 172.75v32.4H9.26a7.66 7.66 0 00-7.74 7 7.49 7.49 0 007.48 8h368.74a7.66 7.66 0 007.74-7 7.49 7.49 0 00-7.48-8H144.21v-32.07h25.22v2.05a14.26 14.26 0 0014.26 14.26h20.73a14.27 14.27 0 0014.26-14.26v-2.05h105.05a7.5 7.5 0 007.5-7.5v-31.13H378a7.5 7.5 0 007.5-7.5v-81.15A7.5 7.5 0 00378 147h-46.77v-31.17a7.5 7.5 0 00-7.5-7.5H300v-32a7.5 7.5 0 00-7.5-7.5h-1.88V49.16a1.9 1.9 0 011.75-1.9l85.63-.1zM95.75 98.08A10.26 10.26 0 01106 87.85h18.77A10.25 10.25 0 01135 98.08v10.25H95.75zm33.46 215.73H95.69v-32.07h33.52zm-41-47.07a71.71 71.71 0 010-143.41h81.24v143.41zM370.5 162v66.15h-39.27V162zm-54.27 73.65v31.13h-97.55v-38.1a7.5 7.5 0 00-15 0v54.37h-19.25V107h19.25v54.3a7.5 7.5 0 0015 0v-38h97.54v112.31zm-68.45-127.32V83.85H285v24.48zM280 37c-3.94 4-4.4 9.36-4.32 14.08v17.77h-18.52V47.48c0-25.6 18.25-31 33.57-31h79.77v15.69l-76.18.1c-4.54 0-10.28.53-14.36 4.69z"/><path class="bgcls-1" d="M377.74 330.31H9a9 9 0 01-9-9.6 9.15 9.15 0 019.24-8.4h69.95v-29.53a88.21 88.21 0 01.06-175.49v-9.21A26.78 26.78 0 01106 71.35h18.77a26.77 26.77 0 0126.75 26.73v8.75h16.4v-.54a15.78 15.78 0 0115.76-15.76h20.73a15.78 15.78 0 0115.76 15.76v.54h11.1V76.35a9 9 0 019-9h.38V47.48c0-19.95 8.63-31.06 15.87-36.86C265.19 3.67 277 0 290.73 0H378a9 9 0 019 9v30.66a9 9 0 01-9 9l-85.61.12a.54.54 0 00-.25.46v18.11h.38a9 9 0 019 9v30.48h22.21a9 9 0 019 9v29.63H378a9 9 0 019 9v81.15a9 9 0 01-9 9h-45.27v29.63a9 9 0 01-9 9H220.18v.55a15.78 15.78 0 01-15.76 15.76h-20.73a15.78 15.78 0 01-15.76-15.76v-.55h-22.22v29.07H378a9 9 0 016.57 2.85 8.93 8.93 0 012.41 6.75 9.15 9.15 0 01-9.24 8.4zm-368.48-15a6.16 6.16 0 00-6.26 5.6 6 6 0 006 6.4h368.74a6.16 6.16 0 006.25-5.6 6 6 0 00-6-6.4H142.71v-35.07h28.22v3.55a12.78 12.78 0 0012.76 12.76h20.73a12.78 12.78 0 0012.76-12.76v-3.55h106.55a6 6 0 006-6v-32.63H378a6 6 0 006-6v-81.15a6 6 0 00-6-6h-48.27v-32.63a6 6 0 00-6-6h-25.21V76.35a6 6 0 00-6-6h-3.38V49.11a3.4 3.4 0 013.24-3.33l85.62-.12a6 6 0 006-6V9a6 6 0 00-6-6h-87.27c-13 0-24.2 3.44-32.33 10-6.72 5.39-14.74 15.76-14.74 34.52v22.83h-3.38a6 6 0 00-6 6v33.48h-17.1v-3.54a12.78 12.78 0 00-12.76-12.76h-20.73a12.77 12.77 0 00-12.76 12.76v3.54h-22.4V98.08a23.76 23.76 0 00-23.75-23.73H106a23.77 23.77 0 00-23.75 23.73v12l-1.37.12C37.21 113.88 3 151.16 3 195s34.18 81.13 77.82 84.89l1.37.12v35.27zm121.45 0H94.19v-35.07h36.52zm-33.52-3h30.52v-29.07H97.19zm108-27.76h-22.26v-179h22.25v55.8a6 6 0 0012 0v-39.5h100.54v146.39H217.18v-39.56a6 6 0 00-12 0zm-19.25-3h16.25v-52.87a9 9 0 0118 0v36.56h94.55V124.83h-94.56v36.5a9 9 0 01-18 0v-52.8h-16.25zm-15-13.31H88.19a73.21 73.21 0 010-146.41h82.74zM88.19 124.83a70.21 70.21 0 000 140.41h79.74V124.83zM372 229.61h-42.27v-69.15H372zm-39.27-3H369v-63.15h-36.27zm-46.21-116.78h-40.24V82.35h40.24zm-37.24-3h34.24V85.35h-34.24zm-112.75 3H94.25V98.08A11.76 11.76 0 01106 86.35h18.77a11.75 11.75 0 0111.75 11.73zm-39.28-3h36.28v-8.75a8.76 8.76 0 00-8.75-8.73H106a8.76 8.76 0 00-8.76 8.73zm179.89-36.48h-21.48V47.48c0-26.84 19.07-32.48 35.07-32.48H372v18.67l-77.67.1c-4.26 0-9.61.48-13.3 4.24-3.56 3.63-4 8.61-3.89 13zm-18.48-3h15.48V51c-.09-5 .41-10.71 4.75-15.13 4.47-4.56 10.6-5.14 15.43-5.14l74.68-.1V18h-78.27c-21.28 0-32.07 9.92-32.07 29.48z"/><path class="bgcls-1" d="M143 187.53h-19.77a7.5 7.5 0 100 15H143a7.5 7.5 0 000-15z"/><path class="bgcls-1" d="M143 203h-19.77a8 8 0 110-16H143a8 8 0 010 16zm-19.73-15a7 7 0 100 14H143a7 7 0 000-14zM143 150.05h-19.77a7.5 7.5 0 000 15H143a7.5 7.5 0 000-15z"/><path class="bgcls-1" d="M143 165.55h-19.77a8 8 0 010-16H143a8 8 0 010 16zm-19.73-15a7 7 0 000 14H143a7 7 0 000-14zM143 225h-19.77a7.5 7.5 0 100 15H143a7.5 7.5 0 000-15z"/><path class="bgcls-1" d="M143 240.53h-19.77a8 8 0 110-16H143a8 8 0 010 16zm-19.73-15a7 7 0 100 14H143a7 7 0 000-14zm87.91-38.03a7.5 7.5 0 00-7.5 7.5 7.5 7.5 0 107.5-7.53z"/><path class="bgcls-1" d="M211.18 203a8 8 0 118-8 8 8 0 01-8 8zm0-15a7 7 0 107 7 7 7 0 00-7-7z"/></g></g></symbol><symbol viewBox="0 0 180.66 384" id="res7" xmlns="http://www.w3.org/2000/svg"><g data-name="Слой 2"><path d="M169.41 112.88h11.25V79a33.89 33.89 0 00-33.85-33.84h-22.64V22.5h11.35V0H45.14v22.5h11.34v22.69H33.84A33.88 33.88 0 000 79v33.85h11.25a11.34 11.34 0 010 22.68H0v214.6A33.88 33.88 0 0033.84 384h113a33.89 33.89 0 0033.85-33.84v-214.6h-11.28a11.34 11.34 0 110-22.68zM79 22.5h22.69v22.69H79zM33.84 67.69h113A11.36 11.36 0 01158.16 79v11.38H22.5V79a11.36 11.36 0 0111.34-11.31zm113 293.81h-113a11.36 11.36 0 01-11.34-11.34v-192.1h135.66v192.1a11.36 11.36 0 01-11.35 11.34zM43.13 135.56a33.78 33.78 0 000-22.68h94.39a33.79 33.79 0 000 22.68z" data-name="Слой 1"/></g></symbol><symbol viewBox="0 0 384 384" id="res8" xmlns="http://www.w3.org/2000/svg"><g data-name="Слой 2"><path d="M374.86 60.37a11.26 11.26 0 00-18.21-3.32l-50 50A21 21 0 01277 77.31l50-50a11.25 11.25 0 00-3.32-18.2 102.74 102.74 0 00-140.56 123.9L68.46 247.66h-.32a68.19 68.19 0 1068.2 67.88L250.9 201a103.17 103.17 0 0030.33 4.53 102.78 102.78 0 0093.63-145.16zM116.94 303.13a11.27 11.27 0 00-3.26 8.89A45.69 45.69 0 1172 270.32a11.29 11.29 0 008.9-3.26l111.91-111.93a103.67 103.67 0 0036.05 36.08zM338 159.51A80.25 80.25 0 01224.49 46a80.85 80.85 0 0173.67-21.7l-37.08 37.1a43.5 43.5 0 0061.52 61.52l37.08-37.08A80.74 80.74 0 01338 159.51z" data-name="Слой 1"/></g></symbol><symbol viewBox="0 0 443.52 443.52" id="right" xmlns="http://www.w3.org/2000/svg"><path d="M336.226 209.591l-204.8-204.8c-6.78-6.548-17.584-6.36-24.132.42-6.388 6.614-6.388 17.099 0 23.712l192.734 192.734-192.734 192.734c-6.663 6.664-6.663 17.468 0 24.132 6.665 6.663 17.468 6.663 24.132 0l204.8-204.8c6.663-6.665 6.663-17.468 0-24.132z"/></symbol><symbol viewBox="0 0 512 512" id="right-arrow" xmlns="http://www.w3.org/2000/svg"><path d="M506.134 241.843l-.018-.019-104.504-104c-7.829-7.791-20.492-7.762-28.285.068-7.792 7.829-7.762 20.492.067 28.284L443.558 236H20c-11.046 0-20 8.954-20 20s8.954 20 20 20h423.557l-70.162 69.824c-7.829 7.792-7.859 20.455-.067 28.284 7.793 7.831 20.457 7.858 28.285.068l104.504-104 .018-.019c7.833-7.818 7.808-20.522-.001-28.314z"/></symbol><symbol viewBox="0 0 469.33 512" id="share" xmlns="http://www.w3.org/2000/svg"><g data-name="Слой 2"><g data-name="Слой 1"><path class="blcls-1" d="M453.33 85.33A69.33 69.33 0 11384 16a69.34 69.34 0 0169.33 69.33z"/><path class="blcls-1" d="M384 170.67a85.34 85.34 0 1185.33-85.34A85.42 85.42 0 01384 170.67zM384 32a53.34 53.34 0 1053.33 53.33A53.39 53.39 0 00384 32zm69.33 394.67A69.33 69.33 0 11384 357.33a69.33 69.33 0 0169.33 69.34z"/><path class="blcls-1" d="M384 512a85.34 85.34 0 1185.33-85.33A85.42 85.42 0 01384 512zm0-138.67a53.34 53.34 0 1053.33 53.34A53.39 53.39 0 00384 373.33zM154.67 256a69.34 69.34 0 11-69.34-69.33A69.34 69.34 0 01154.67 256z"/><path class="blcls-1" d="M85.33 341.33A85.33 85.33 0 11170.67 256a85.42 85.42 0 01-85.34 85.33zm0-138.66A53.33 53.33 0 10138.67 256a53.39 53.39 0 00-53.34-53.33z"/><path class="blcls-1" d="M135.7 245.76a21.33 21.33 0 01-10.58-39.87L323.07 93a21.33 21.33 0 1121.12 37.07L146.24 243a21.21 21.21 0 01-10.54 2.8zm197.93 176a21.21 21.21 0 01-10.54-2.8L125.14 306.11A21.34 21.34 0 11146.26 269l198 112.86a21.33 21.33 0 01-10.58 39.87z"/></g></g></symbol><symbol viewBox="0 0 64 64" id="sort" xmlns="http://www.w3.org/2000/svg"><path d="M31.414 15.586l-7-7a2 2 0 00-2.828 0l-7 7a2 2 0 102.828 2.828L21 14.828V54a2 2 0 004 0V14.828l3.586 3.586c.39.391.902.586 1.414.586s1.024-.195 1.414-.586a2 2 0 000-2.828zm18 30a2 2 0 00-2.828 0L43 49.172V10a2 2 0 00-4 0v39.172l-3.586-3.586a2 2 0 10-2.828 2.828l7 7c.391.391.902.586 1.414.586s1.023-.195 1.414-.586l7-7a2 2 0 000-2.828z"/></symbol><symbol viewBox="0 0 512 512" id="tile" xmlns="http://www.w3.org/2000/svg"><path d="M217.043.001H16.696C7.515.001 0 7.479 0 16.697v200.348c0 9.214 7.482 16.693 16.696 16.693h200.348c9.214 0 16.696-7.481 16.696-16.693V16.697C233.739 7.479 226.224.001 217.043.001zm278.261 0H294.957c-9.18 0-16.696 7.477-16.696 16.696v200.348c0 9.214 7.482 16.693 16.696 16.693h200.348c9.214 0 16.696-7.481 16.696-16.693V16.697C512 7.479 504.485.001 495.304.001zM217.043 278.262H16.696C7.515 278.262 0 285.739 0 294.958v200.348c0 9.214 7.482 16.693 16.696 16.693h200.348c9.214 0 16.696-7.481 16.696-16.693V294.958c-.001-9.219-7.516-16.696-16.697-16.696zm278.261 0H294.957c-9.18 0-16.696 7.477-16.696 16.696v200.348c0 9.214 7.482 16.693 16.696 16.693h200.348c9.214 0 16.696-7.481 16.696-16.693V294.958c-.001-9.219-7.516-16.696-16.697-16.696z"/></symbol><symbol viewBox="0 0 281.43 302" id="user" xmlns="http://www.w3.org/2000/svg"><g data-name="Слой 2"><path d="M270.4 302H11a11 11 0 01-11-11c0-78 50-120.9 140.71-120.9S281.43 213 281.43 291a11 11 0 01-11.03 11zm-248-22H259c-4.34-58.28-44.08-87.81-118.28-87.81S26.78 221.68 22.44 280zm118.31-126.06c-40.31 0-73.11-35.6-73.11-79.36C67.6 32.06 99 0 140.71 0s73.11 32.06 73.11 74.58c0 43.76-32.82 79.36-73.11 79.36zm0-131.9c-29.59 0-51.07 22.1-51.07 52.54 0 31.6 22.91 57.32 51.07 57.32s51.07-25.72 51.07-57.32c0-29.95-21.95-52.58-51.07-52.58z" data-name="Capa 1"/></g></symbol></svg>