<?xml version="1.0" encoding="UTF-8"?>
<!DOCTYPE svg PUBLIC "-//W3C//DTD SVG 1.1//EN" "http://www.w3.org/Graphics/SVG/1.1/DTD/svg11.dtd">
<!-- Creator: CorelDRAW 2020 (64-Bit) -->
<svg xmlns="http://www.w3.org/2000/svg" xml:space="preserve" width="204.762mm" height="21.6778mm" version="1.1" style="shape-rendering:geometricPrecision; text-rendering:geometricPrecision; image-rendering:optimizeQuality; fill-rule:evenodd; clip-rule:evenodd"
viewBox="0 0 10151.31 1074.7"
 xmlns:xlink="http://www.w3.org/1999/xlink"
 xmlns:xodm="http://www.corel.com/coreldraw/odm/2003">
 <defs>
  <style type="text/css">
   <![CDATA[
    .fil0 {fill:#03DAD9}
   ]]>
  </style>
 </defs>
 <g id="Слой_x0020_1">
  <metadata id="CorelCorpID_0Corel-Layer"/>
  <g id="_2531063964528">
   <path class="fil0" d="M537.35 0l895.58 0c295.54,0 537.35,241.81 537.35,537.35l0 0c0,295.54 -241.81,537.35 -537.35,537.35l-895.58 0c-295.54,0 -537.35,-241.81 -537.35,-537.35l0 -0c0,-295.54 241.81,-537.35 537.35,-537.35zm537.35 985.15c-24.73,0 -44.78,-20.05 -44.78,-44.78 0,-24.73 20.04,-44.78 44.78,-44.78l358.24 0c197.03,0 358.23,-161.21 358.23,-358.23 0,-197.03 -161.21,-358.24 -358.23,-358.24l-300.05 0c-56.86,0 -102.96,46.1 -102.96,102.96 0,56.86 46.1,102.97 102.96,102.97 14.79,0 28.85,-3.12 41.56,-8.73 6.79,-3.01 13.2,-6.72 19.13,-11.05l105.03 -60.66c8.58,-4.95 17.45,-9.45 26.6,-13.45 32.98,-14.46 69.43,-22.49 107.74,-22.49 148.39,0 268.68,120.29 268.68,268.68 0,148.39 -120.29,268.67 -268.68,268.67 -48.94,0 -94.82,-13.09 -134.34,-35.95l-250.88 -144.87 -107.36 -62 -22.38 -12.93 -22.38 -12.92 -36.36 -21 -232.35 -134.17c-27.34,-15.79 -57.98,-23.95 -89.55,-23.95 -98.95,0 -179.12,80.16 -179.12,179.11 0,98.95 80.17,179.12 179.12,179.12 31.57,0 62.22,-8.16 89.55,-23.94l101.45 -58.58 26.45 -15.27 0 -0 1.17 -0.55 0 0 1.18 -0.55 0 0 1.18 -0.54 0 -0 1.19 -0.53 0 0 1.19 -0.53 0 0 1.2 -0.51 0 -0 1.19 -0.51 0 -0 1.21 -0.5 0 0 1.21 -0.49 0 0 1.21 -0.48 0 -0 1.21 -0.48 0 0 1.22 -0.47 0 -0 1.22 -0.45 0 -0 1.22 -0.45 0 0 1.24 -0.45 0 0 1.23 -0.43 0 0 1.24 -0.43 0 0 1.24 -0.42 0 0 1.24 -0.41 0 0 1.25 -0.4 0 0 1.25 -0.39 0 0 1.26 -0.39 0 0 1.27 -0.38 0 0 1.26 -0.37 0 -0 1.27 -0.36 0 0 1.27 -0.35 0 0 1.28 -0.34 0 -0 1.28 -0.33 0 0 1.28 -0.33 0 0 1.29 -0.31 0 -0 1.29 -0.31 0 0 1.29 -0.3 0 0 1.29 -0.29 0 0 1.3 -0.29 0 0 1.3 -0.27 0 0 1.31 -0.26 0 0 1.31 -0.25 0 -0 1.31 -0.25 0 0 1.31 -0.24 0 0 1.32 -0.23 0 0 1.32 -0.22 0 0 1.33 -0.21 0 0 1.33 -0.2 0 -0 1.33 -0.19 0 0 1.33 -0.18 0 0 1.34 -0.18 0 0 1.34 -0.16 0 -0 1.34 -0.16 0 0 1.34 -0.14 0 0 1.35 -0.14 0 0 1.35 -0.13 0 -0 1.35 -0.11 0 0 1.36 -0.11 0 -0 1.36 -0.1 0 0 1.36 -0.09 0 0 1.37 -0.08 0 -0 1.37 -0.07 0 0 1.37 -0.06 0 -0 1.37 -0.05 0 0 1.37 -0.04 0 0 1.38 -0.03 0 0 1.38 -0.02 0 0 1.38 -0.01 0 0 1.38 -0 1.53 0 0 0 1.52 0.02 0 0 1.52 0.03 0 0 1.51 0.03 0 0 1.52 0.05 0 0 1.51 0.06 0 0 1.51 0.08 0 0 1.5 0.08 0 0 1.5 0.09 0 0 1.5 0.11 0 0 1.5 0.12 0 0 1.48 0.12 0 0 1.49 0.14 0 0 1.49 0.15 0 0 1.48 0.17 0 0 1.48 0.17 0 0 1.47 0.19 0 0 1.47 0.2 0 0 1.47 0.21 0 0 1.47 0.22 0 0 1.46 0.23 0 0 1.45 0.24 0 0 1.45 0.25 0 0 1.45 0.26 0 0 1.44 0.27 0 0 1.44 0.28 0 0 1.44 0.3 0 0 1.43 0.31 0 0 1.43 0.32 0 0 1.43 0.33 0 0 1.42 0.34 0 0 1.41 0.35 0 0 1.41 0.36 0 0 1.41 0.37 0 0 1.41 0.38 0 0 1.4 0.39 0 0 1.39 0.4 0 0 1.39 0.41 0 0 1.39 0.42 0 0 1.38 0.43 0 0 1.38 0.44 0 0 1.37 0.45 0 0 1.37 0.46 0 0 1.36 0.47 0 0 1.36 0.49 0 0 1.35 0.49 0 0 1.35 0.5 0 0 1.34 0.51 0 0 1.34 0.52 0 0 1.34 0.53 0 0 1.33 0.55 0 0 1.32 0.55 0 0 1.32 0.56 0 0 1.31 0.58 0 0 1.31 0.58 0 0 1.3 0.58 0 0 1.3 0.6 0 0 1.3 0.6 0 0 1.29 0.61 0 0 1.28 0.62 0 0 1.28 0.63 0 0 1.28 0.64 0 0 1.26 0.65 0 0 1.26 0.66 0 0 0.21 0.1 0 0 0.2 0.11 0 0 0.21 0.11 0 0 0.21 0.1 0 0 0.2 0.11 0 0 0.21 0.11 0 0 0.2 0.1 0 0 0.2 0.11 0 0 0.21 0.11 0 0 0.21 0.11 0 0 0.2 0.11 0 0 0.21 0.11 0 0 0.2 0.11 0 0 0.21 0.11 0 0 0.2 0.11 0 0 0.2 0.1 0 0 0.21 0.11 0 0 0.2 0.11 0 0 0.21 0.1 0 0 0.2 0.11 0 0 0.21 0.11 0 0 0.2 0.11 0 0 0.2 0.12 0 0 0.21 0.11 0 0 0.2 0.11 0 0 0.21 0.12 0 0 0.2 0.11 0 0 0.2 0.11 0 0 0.2 0.11 0 0 0.2 0.12 0 0 0.2 0.11 0 0 0.2 0.11 0 0 0.2 0.12 0 0 0.21 0.11 0 0 0.2 0.12 0 0 0.2 0.12 0 0 0.2 0.11 0 0 0.2 0.12 0 0 0.21 0.12 0 0 0.2 0.11 0 0 0.2 0.12 0 0 0.2 0.11 0 0 0.2 0.12 0 0 0.2 0.12 0 0 0.2 0.12 0 0 0.2 0.12 0 0 0.2 0.12 0 0 0.2 0.11 0 0 0.2 0.12 0 0 0.19 0.12 0 0 0.2 0.12 0 0 0.2 0.12 0 0 0.2 0.12 0 0 0.19 0.12 0 0 0.2 0.12 0 0 0.2 0.12 0 0 0.19 0.11 0 0 0.2 0.12 0 0 0.2 0.12 0 0 0.2 0.12 0 0 0.19 0.12 0 0 0.2 0.12 0 0 0.2 0.12 0 0 0.2 0.12 0 0c0.84,0.53 1.68,1.07 2.51,1.62l0 0c0.83,0.55 1.66,1.1 2.48,1.66l0 0c0.82,0.56 1.64,1.13 2.46,1.69l0 0c0.81,0.57 1.62,1.15 2.42,1.73l0 0c0.8,0.58 1.61,1.17 2.4,1.76l0 0c0.79,0.59 1.59,1.19 2.37,1.8l0 0c0.78,0.61 1.56,1.22 2.34,1.83l0 0c0.77,0.61 1.55,1.24 2.32,1.87l0 0c0.76,0.63 1.52,1.26 2.28,1.9l0 0c0.75,0.64 1.51,1.28 2.26,1.94l0 0c0.74,0.65 1.48,1.31 2.22,1.98l0 0c0.73,0.66 1.47,1.33 2.19,2.01l0 0c0.73,0.67 1.45,1.35 2.16,2.04l0 0c0.71,0.68 1.43,1.38 2.13,2.08l0 0c0.7,0.7 1.4,1.4 2.09,2.11l0 0c0.69,0.7 1.38,1.42 2.07,2.14l0 0c0.68,0.72 1.36,1.44 2.03,2.17l0 0c0.67,0.73 1.34,1.46 2,2.2l0 0c0.66,0.73 1.31,1.48 1.97,2.23l0 0c0.65,0.75 1.29,1.51 1.93,2.26l0 0c0.63,0.76 1.27,1.53 1.89,2.3l0 0c0.63,0.77 1.24,1.54 1.86,2.33l0 0c0.61,0.78 1.22,1.56 1.83,2.35l0 0c0.6,0.79 1.19,1.58 1.78,2.38l0 0c0.59,0.8 1.18,1.6 1.75,2.41l0 0c0.58,0.81 1.16,1.62 1.72,2.43l0 0c0.57,0.82 1.13,1.64 1.68,2.47l0 0c0.56,0.82 1.1,1.66 1.65,2.49l0 0c0.54,0.84 1.07,1.68 1.6,2.52l0 0c0.53,0.84 1.05,1.69 1.56,2.55l0 0c0.52,0.85 1.03,1.71 1.53,2.57l0 0c0.5,0.86 1,1.73 1.48,2.6l0 0c0.49,0.87 0.98,1.74 1.45,2.62l0 0c0.48,0.88 0.94,1.76 1.41,2.65l0 0c0.46,0.89 0.92,1.78 1.37,2.67l0 0c0.45,0.9 0.89,1.79 1.32,2.69l0 0c0.44,0.91 0.87,1.81 1.29,2.72l0 0c0.43,0.91 0.84,1.82 1.25,2.74l0 0c0.41,0.92 0.8,1.84 1.2,2.77l0 0c0.4,0.93 0.78,1.85 1.17,2.79l0 0c0.38,0.93 0.75,1.87 1.12,2.81l0 0c0.37,0.94 0.73,1.89 1.08,2.84l0 0c0.35,0.95 0.69,1.89 1.03,2.85l0 0c0.34,0.96 0.66,1.91 0.99,2.87l0 0c0.32,0.96 0.63,1.92 0.94,2.9l0 0c0.3,0.97 0.6,1.93 0.9,2.91l0 0c0.29,0.97 0.58,1.95 0.86,2.93l0 0c0.27,0.99 0.55,1.97 0.8,2.95l0 0c0.27,0.99 0.52,1.98 0.76,2.97l0 0c0.25,1 0.49,1.99 0.72,2.99l0 0c0.23,1 0.46,2 0.67,3.01l0 0c0.21,1.01 0.42,2.01 0.62,3.02l0 0c0.2,1.01 0.39,2.02 0.58,3.04l0 0c0.18,1.02 0.36,2.03 0.53,3.05l0 0c0.17,1.02 0.33,2.05 0.48,3.07l0 0c0.15,1.03 0.29,2.06 0.43,3.09l0 0c0.14,1.03 0.27,2.07 0.38,3.1l0 0c0.12,1.04 0.23,2.07 0.33,3.12l0 0c0.1,1.04 0.2,2.09 0.28,3.13l0 0c0.08,1.05 0.16,2.09 0.23,3.14l0 0c0.07,1.05 0.12,2.11 0.18,3.16l0 0c0.05,1.06 0.09,2.12 0.13,3.18l0 0c0.03,1.06 0.06,2.12 0.08,3.19l0 0c0.02,1.06 0.03,2.12 0.03,3.19l0 0c0,37.87 -10.94,73.19 -29.82,102.96 -15.25,24.05 -35.69,44.48 -59.74,59.74 -29.78,18.89 -65.09,29.82 -102.97,29.82l-300.04 0c-246.28,0 -447.79,-201.51 -447.79,-447.8 0,-246.28 201.51,-447.79 447.79,-447.79l358.24 0c24.73,0 44.78,20.05 44.78,44.78 0,24.73 -20.05,44.78 -44.78,44.78l-358.24 0c-197.03,0 -358.23,161.21 -358.23,358.23 0,197.03 161.21,358.24 358.23,358.24l300.04 -0c56.87,0 102.97,-46.1 102.97,-102.96l0 -0c0,-0.88 -0.01,-1.77 -0.03,-2.65l0 0c-0.02,-0.88 -0.05,-1.76 -0.1,-2.64l0 -0c-0.04,-0.88 -0.1,-1.75 -0.17,-2.62l0 -0c-0.07,-0.87 -0.14,-1.74 -0.23,-2.6l0 -0c-0.09,-0.87 -0.19,-1.73 -0.3,-2.58l0 0c-0.11,-0.86 -0.23,-1.72 -0.36,-2.57l0 0c-0.13,-0.85 -0.27,-1.7 -0.43,-2.55l0 0c-0.15,-0.84 -0.31,-1.69 -0.49,-2.52l0 -0c-0.17,-0.84 -0.35,-1.67 -0.54,-2.5l0 -0c-0.19,-0.83 -0.4,-1.65 -0.6,-2.48l0 0c-0.21,-0.82 -0.44,-1.64 -0.66,-2.45l0 -0c-0.23,-0.81 -0.48,-1.63 -0.72,-2.43l0 0c-0.25,-0.81 -0.51,-1.61 -0.78,-2.4l0 0c-0.27,-0.8 -0.55,-1.59 -0.84,-2.38l0 0c-0.29,-0.79 -0.59,-1.57 -0.9,-2.35l0 0c-0.31,-0.78 -0.62,-1.56 -0.95,-2.33l0 -0c-0.33,-0.76 -0.66,-1.53 -1.01,-2.29l0 -0c-0.34,-0.76 -0.69,-1.51 -1.06,-2.26l0 0c-0.36,-0.75 -0.73,-1.5 -1.12,-2.24l0 -0c-0.38,-0.74 -0.76,-1.47 -1.16,-2.2l0 -0c-0.4,-0.73 -0.8,-1.45 -1.22,-2.17l0 0c-0.42,-0.72 -0.83,-1.43 -1.26,-2.14l0 0c-0.43,-0.71 -0.87,-1.41 -1.31,-2.11l0 0c-0.45,-0.69 -0.91,-1.38 -1.36,-2.07l0 -0c-0.47,-0.68 -0.94,-1.36 -1.41,-2.03l0 -0c-0.48,-0.67 -0.96,-1.33 -1.46,-2l0 0c-0.49,-0.66 -0.99,-1.31 -1.51,-1.96l0 -0c-0.51,-0.64 -1.03,-1.29 -1.55,-1.92l0 0c-0.52,-0.64 -1.06,-1.27 -1.6,-1.89l0 0c-0.54,-0.62 -1.09,-1.24 -1.64,-1.85l0 -0c-0.56,-0.6 -1.11,-1.2 -1.69,-1.8l0 -0c-0.57,-0.59 -1.14,-1.18 -1.73,-1.76l0 0c-0.58,-0.58 -1.17,-1.16 -1.76,-1.73l0 -0c-0.6,-0.57 -1.2,-1.13 -1.81,-1.68l0 0c-0.6,-0.55 -1.23,-1.1 -1.85,-1.64l0 -0c-0.62,-0.54 -1.25,-1.07 -1.88,-1.6l0 0c-0.63,-0.53 -1.28,-1.04 -1.93,-1.55l0 0c-0.65,-0.51 -1.3,-1.01 -1.96,-1.5l0 -0c-0.66,-0.49 -1.33,-0.98 -2,-1.45l0 0c-0.67,-0.48 -1.35,-0.95 -2.04,-1.41l0 0c-0.68,-0.47 -1.38,-0.92 -2.07,-1.36l0 0c-0.7,-0.45 -1.4,-0.89 -2.11,-1.31l0 0c-0.71,-0.43 -1.42,-0.85 -2.14,-1.27l0 0c-0.71,-0.42 -1.44,-0.81 -2.17,-1.21l0 -0c-0.73,-0.4 -1.46,-0.78 -2.21,-1.16l0 -0c-0.74,-0.38 -1.48,-0.75 -2.23,-1.11l0 0c-0.75,-0.36 -1.51,-0.71 -2.27,-1.06l0 -0c-0.75,-0.34 -1.52,-0.67 -2.29,-1l0 0c-0.77,-0.33 -1.55,-0.64 -2.33,-0.95l0 0c-0.78,-0.31 -1.57,-0.6 -2.35,-0.89l0 0c-0.79,-0.29 -1.59,-0.57 -2.38,-0.84l0 -0c-0.8,-0.27 -1.6,-0.53 -2.4,-0.77l0 0c-0.81,-0.26 -1.62,-0.5 -2.43,-0.72l0 -0c-0.82,-0.23 -1.63,-0.45 -2.45,-0.66l0 -0c-0.83,-0.21 -1.65,-0.41 -2.48,-0.6l0 0c-0.82,-0.19 -1.66,-0.37 -2.5,-0.54l0 -0c-0.84,-0.17 -1.68,-0.33 -2.52,-0.48l0 -0c-0.85,-0.15 -1.7,-0.29 -2.55,-0.42l0 0c-0.85,-0.13 -1.71,-0.25 -2.57,-0.36l0 -0c-0.86,-0.11 -1.72,-0.21 -2.58,-0.29l0 0c-0.86,-0.09 -1.73,-0.16 -2.61,-0.23l0 0c-0.87,-0.07 -1.75,-0.12 -2.62,-0.16l0 0c-0.88,-0.05 -1.75,-0.08 -2.64,-0.1l0 0c-0.88,-0.02 -1.76,-0.03 -2.66,-0.03l-0.69 0 0 0 -0.69 0 0 0 -0.69 0.01 0 0 -0.69 0.01 0 0 -0.69 0.02 0 0 -0.69 0.02 0 0 -0.68 0.03 0 0 -0.68 0.03 0 0 -0.68 0.03 0 0 -0.68 0.03 0 0 -0.68 0.04 0 0 -0.68 0.04 0 0 -0.68 0.05 0 0 -0.67 0.05 0 0 -0.68 0.06 0 0 -0.67 0.06 0 0 -0.68 0.07 0 0 -0.67 0.08 0 0 -0.67 0.08 0 0 -0.66 0.08 0 0 -0.67 0.09 0 0 -0.67 0.09 0 0 -0.66 0.1 0 0 -0.66 0.1 0 0 -0.66 0.1 0 0 -0.66 0.11 0 0 -0.66 0.11 0 0 -0.66 0.12 0 0 -0.66 0.12 0 0 -0.65 0.12 0 0 -0.65 0.13 0 0 -0.65 0.13 0 0 -0.65 0.14 0 0 -0.65 0.14 0 0 -0.64 0.14 0 0 -0.65 0.15 0 0 -0.64 0.15 0 0 -0.64 0.16 0 0 -0.64 0.16 0 0 -0.64 0.17 0 0 -0.63 0.17 0 0 -0.63 0.17 0 0 -0.63 0.17 0 0 -0.63 0.19 0 0 -0.63 0.18 0 0 -0.63 0.2 0 0 -0.63 0.19 0 0 -0.62 0.2 0 0 -0.62 0.21 0 0 -0.62 0.21 0 0 -0.62 0.21 0 0 -0.62 0.21 0 0 -0.62 0.21 0 0 -0.61 0.22 0 0 -0.61 0.22 0 0 -0.61 0.23 0 0 -0.61 0.23 0 0 -0.61 0.24 0 0 -0.6 0.24 0 0 -0.6 0.25 0 0 -0.6 0.25 0 0 -0.6 0.25 0 0 -0.59 0.25 0 0 -0.6 0.26 0 0 -0.32 0.14 0 0 -0.32 0.14 0 0 -0.32 0.14 0 0 -0.31 0.14 0 0 -0.32 0.14 0 0 -0.31 0.15 0 0 -0.32 0.15 0 0 -0.31 0.14 0 0 -0.31 0.15 0 0 -0.31 0.15 0 0 -0.31 0.15 0 0 -0.31 0.15 0 0 -0.31 0.15 0 0 -0.31 0.16 0 0 -0.32 0.15 0 0 -0.31 0.16 0 0 -0.31 0.15 0 0 -0.31 0.16 0 0 -0.31 0.15 0 0 -0.31 0.16 0 0 -0.31 0.16 0 0 -0.3 0.16 0 0 -0.31 0.16 0 0 -0.31 0.16 0 0 -0.3 0.16 0 0 -0.3 0.16 0 0 -0.3 0.16 0 0 -0.3 0.17 0 0 -0.3 0.17 0 0 -0.3 0.17 0 0 -0.3 0.17 0 0 -0.3 0.17 0 0 -0.3 0.17 0 0 -0.3 0.18 0 0 -0.29 0.17 0 0 -0.3 0.17 0 0 -0.3 0.17 0 0 -0.29 0.18 0 0 -0.3 0.17 0 0 -0.3 0.18 0 0 -0.29 0.18 0 0 -0.29 0.18 0 0 -0.29 0.18 0 0 -0.29 0.18 0 0 -0.29 0.18 0 0 -0.29 0.19 0 0 -0.29 0.18 0 0 -0.29 0.18 0 0 -0.29 0.19 0 0 -0.29 0.18 0 0 -0.29 0.19 0 0 -0.28 0.18 0 0 -0.29 0.19 0 0 -0.28 0.19 0 0 -0.29 0.19 0 0 -0.28 0.19 0 0 -0.28 0.19 0 0 -0.28 0.2 0 0 -0.29 0.19 0 0 -0.28 0.2 0 0 -0.28 0.2 0 0 -0.28 0.2 0 0 -0.28 0.2 0 0 -0.28 0.2 0 0 -105.04 60.65 0 0 -0.4 0.22 0 0 -0.4 0.23 0 0 -0.41 0.23 0 0 -0.41 0.23 0 0 -0.4 0.23 0 0 -0.4 0.22 0 0 -0.41 0.22 0 0 -0.41 0.23 0 0 -0.41 0.22 0 0 -0.41 0.22 0 0 -0.41 0.23 0 0 -0.4 0.22 0 0 -0.41 0.22 0 0 -0.41 0.22 0 0 -0.41 0.22 0 0 -0.41 0.22 0 0 -0.41 0.22 0 0 -0.41 0.21 0 0 -0.41 0.22 0 0 -0.41 0.22 0 0 -0.41 0.22 0 0 -0.41 0.22 0 0 -0.41 0.21 0 0 -0.42 0.21 0 0 -0.41 0.21 0 0 -0.42 0.21 0 0 -0.41 0.21 0 0 -0.42 0.21 0 0 -0.42 0.21 0 0 -0.41 0.21 0 0 -0.42 0.21 0 0 -0.41 0.2 0 0 -0.42 0.21 0 0 -0.42 0.2 0 0 -0.42 0.2 0 0 -0.41 0.21 0 0 -0.42 0.2 0 0 -0.42 0.21 0 0 -0.42 0.2 0 0 -0.42 0.2 0 0 -0.42 0.2 0 0 -0.42 0.2 0 0 -0.42 0.21 0 0 -0.42 0.2 0 0 -0.42 0.2 0 0 -0.42 0.2 0 0 -0.43 0.19 0 0 -0.42 0.2 0 0 -0.42 0.19 0 0 -0.43 0.2 0 0 -0.42 0.19 0 0 -0.43 0.19 0 0 -0.43 0.19 0 0 -0.42 0.19 0 0 -0.43 0.19 0 0 -0.43 0.19 0 0 -0.43 0.19 0 0 -0.42 0.19 0 0 -0.43 0.19 0 0 -0.43 0.19 0 0 -0.43 0.19 0 0 -0.42 0.19 0 0 -0.43 0.19 0 0 -0.43 0.19 0 0c-32.98,14.46 -69.42,22.48 -107.74,22.48 -148.38,0 -268.67,-120.29 -268.67,-268.68 0,-148.39 120.29,-268.68 268.67,-268.68 48.94,0 94.82,13.09 134.34,35.95l268.69 155.16 89.56 51.72 0 -0 44.76 25.85 36.36 21 232.35 134.17c27.34,15.79 57.98,23.95 89.55,23.95 98.95,0 179.11,-80.17 179.11,-179.12 0,-98.95 -80.16,-179.12 -179.11,-179.12 -31.56,0 -62.21,8.16 -89.55,23.95l-101.44 58.57 -26.46 15.28c-25.03,11.91 -53.04,18.58 -82.61,18.58 -32.52,0 -63.16,-8.06 -90.03,-22.3 -4.42,-2.34 -8.74,-4.85 -12.94,-7.52 -53.83,-34.14 -89.56,-94.25 -89.56,-162.7 0,-37.87 10.94,-73.19 29.82,-102.96 15.25,-24.05 35.69,-44.48 59.74,-59.74 29.78,-18.88 65.09,-29.82 102.96,-29.82l300.05 -0c246.28,0 447.79,201.51 447.79,447.79 0,246.28 -201.5,447.8 -447.79,447.8l-358.24 0zm-237.31 -385.05l0 0 0 0z"/>
   <path class="fil0" d="M2742.28 464.38c0,-31.47 30.42,-53.46 60.6,-44.55 65.22,19.27 105.58,70.94 105.58,141.98 0,72.48 -40.41,123.94 -105.7,143 -30.15,8.81 -60.48,-13.16 -60.48,-44.56l0 -195.87zm-442.84 95.09l0 -0.63c0.15,-147.01 105.75,-257.23 279.57,-267.6 15.2,-0.9 27.14,-13.39 27.14,-28.62 0,-15.87 12.87,-28.73 28.75,-28.73l78.64 0c15.87,0 28.73,12.87 28.73,28.73l0 0.01c0,15.23 11.95,27.71 27.15,28.62 173.2,10.41 279.57,120.8 279.57,268.79 0,146.62 -102.84,260.27 -274.49,272.86 -18.06,1.31 -32.23,16.01 -32.23,34.1l0 0c0,18.91 -15.32,34.23 -34.22,34.23l-67.67 0c-18.91,0 -34.23,-15.32 -34.23,-34.23 0,-18.1 -14.15,-32.79 -32.21,-34.1 -171.54,-12.59 -274.36,-126.13 -274.5,-273.43zm306.72 100.87c0,30.26 -28.56,53.27 -57.75,45.28 -67.16,-18.4 -109.32,-70.28 -109.32,-143.81 0,-71.11 40.99,-122.8 106.52,-142.03 30.18,-8.85 60.54,13.11 60.54,44.56l0 195.99zm1040.38 -402.6l-54.57 0c-15.61,0 -30.2,7.78 -38.9,20.75l-195.89 291.94c-18.78,27.98 -62.44,14.68 -62.44,-19l0 -246.84c0,-25.86 -20.97,-46.84 -46.85,-46.84l-40.66 0c-25.87,0 -46.85,20.98 -46.85,46.84l0 525.05c0,25.88 20.98,46.86 46.85,46.86l56.25 0c15.66,0 30.29,-7.83 38.98,-20.86l190.65 -285.98c19.75,-29.62 65.92,-15.65 65.92,19.96l0 240.01c0,25.88 20.98,46.86 46.85,46.86l40.66 0c25.88,0 46.84,-20.98 46.84,-46.86l0 -525.05c0,-25.86 -20.97,-46.84 -46.84,-46.84zm324.4 0c-25.86,0 -46.85,20.98 -46.85,46.84l0 81.32c0,254.81 -24.28,342.16 -68.51,369.17 -8.91,5.45 -18.81,8.51 -29.03,9.92 -22.44,3.13 -40.23,20.34 -42.01,42.93l-1.98 25c-2.03,25.74 17.16,48.33 42.9,50.39 8.96,0.71 17.74,1.12 25.27,1.12 141.43,0 200.65,-92.8 200.65,-456.97 0,-25.88 20.98,-46.86 46.85,-46.86l84.85 0c25.88,0 46.85,20.98 46.85,46.86l0 402.17c0,25.88 20.98,46.86 46.84,46.86l42.43 0c25.88,0 46.84,-20.98 46.84,-46.86l0 -525.05c0,-25.86 -20.97,-46.84 -46.84,-46.84l-348.27 0zm543.61 571.9c0,25.88 20.98,46.86 46.85,46.86l212.14 0c144.96,0 235.12,-80.45 235.12,-207.72 0,-121.1 -83.09,-200.65 -226.29,-200.65l-84.85 0c-25.87,0 -46.85,-20.98 -46.85,-46.86l0 -116.68c0,-25.86 -20.97,-46.84 -46.84,-46.84l-42.43 0c-25.87,0 -46.85,20.98 -46.85,46.84l0 525.05zm256.34 -244.85c68.06,0 102.53,30.05 102.53,82.2 0,57.46 -34.48,86.62 -101.65,86.62l-74.25 0c-25.87,0 -46.85,-20.97 -46.85,-46.83l0 -75.13c0,-25.88 20.98,-46.86 46.85,-46.86l73.37 0zm533 291.71l42.43 0c25.88,0 46.85,-20.98 46.85,-46.86l0 -399.53c0,-25.86 20.98,-46.83 46.84,-46.83l94.58 0c25.88,0 46.85,-20.98 46.85,-46.84l0 -31.84c0,-25.86 -20.97,-46.84 -46.85,-46.84l-418.98 0c-25.87,0 -46.85,20.98 -46.85,46.84l0 31.84c0,25.86 20.98,46.84 46.85,46.84l94.58 0c25.88,0 46.84,20.97 46.84,46.83l0 399.53c0,25.88 20.98,46.86 46.85,46.86zm428.7 0l42.43 0c25.88,0 46.85,-20.98 46.85,-46.86l0 -91.93c0,-25.87 20.98,-46.83 46.85,-46.83l56.57 0c138.77,0 250.15,-74.25 250.15,-217.46 0,-128.17 -89.28,-215.68 -236.89,-215.68l-205.95 0c-25.86,0 -46.84,20.98 -46.84,46.84l0 525.05c0,25.88 20.98,46.86 46.84,46.86zm89.28 -353.57l0 -95.46c0,-25.88 20.98,-46.86 46.85,-46.86l58.34 0c68.06,0 110.49,32.71 110.49,93.71 0,54.79 -39.77,95.45 -107.84,95.45l-60.99 0c-25.87,0 -46.85,-20.97 -46.85,-46.83zm754.87 364.16c190.93,0 329.71,-144.06 329.71,-319.96 0,-177.68 -137.01,-319.98 -327.94,-319.98 -190.93,0 -329.69,144.08 -329.69,319.98 0,177.65 137,319.96 327.92,319.96zm1.77 -125.52c-109.61,0 -187.39,-88.39 -187.39,-194.45 0,-107.85 76.03,-194.48 185.62,-194.48 109.61,0 187.39,88.4 187.39,194.48 0,107.84 -76,194.45 -185.62,194.45zm578.08 -503.83c-25.87,0 -46.84,20.98 -46.84,46.84l0 81.32c0,248.71 -23.14,337.89 -65.39,367.14 -10.25,7.09 -21.97,10.75 -34.11,12.19 -21.91,2.62 -38.38,21.4 -40.12,43.4l-1.91 24.3c-2.03,25.74 17.17,48.33 42.89,50.39 8.96,0.71 17.74,1.12 25.27,1.12 141.43,0 200.66,-92.8 200.66,-456.97 0,-25.88 20.97,-46.86 46.83,-46.86l84.85 0c25.88,0 46.86,20.98 46.86,46.86l0 402.17c0,25.88 20.97,46.86 46.83,46.86l42.43 0c25.86,0 46.84,-20.98 46.84,-46.86l0 -525.05c0,-25.86 -20.98,-46.84 -46.84,-46.84l-348.27 0zm844.16 629.35c190.91,0 329.69,-144.06 329.69,-319.96 0,-177.68 -137.01,-319.98 -327.94,-319.98 -190.93,0 -329.7,144.08 -329.7,319.98 0,177.65 137.01,319.96 327.95,319.96zm1.75 -125.52c-109.6,0 -187.39,-88.39 -187.39,-194.45 0,-107.85 76.02,-194.48 185.63,-194.48 109.59,0 187.38,88.4 187.38,194.48 0,107.84 -76.02,194.45 -185.62,194.45zm632.02 -380.97l202.4 0c25.87,0 46.85,-20.97 46.85,-46.85l0 -29.17c0,-25.86 -20.98,-46.84 -46.85,-46.84l-338.54 0c-25.88,0 -46.85,20.98 -46.85,46.84l0 525.05c0,25.88 20.97,46.86 46.85,46.86l42.43 0c25.88,0 46.85,-20.98 46.85,-46.86l0 -402.17c0,-25.88 20.97,-46.86 46.86,-46.86zm831.77 -122.86l-54.58 0c-15.61,0 -30.2,7.78 -38.9,20.75l-197.61 294.5c-18.27,27.21 -60.72,14.28 -60.72,-18.47l0 -249.93c0,-25.86 -20.98,-46.84 -46.85,-46.84l-40.66 0c-25.87,0 -46.85,20.98 -46.85,46.84l0 525.05c0,25.88 20.98,46.86 46.85,46.86l56.25 0c15.66,0 30.29,-7.83 38.98,-20.86l199.03 -298.56c17.24,-25.85 57.55,-13.65 57.55,17.42l0 255.13c0,25.88 20.97,46.86 46.83,46.86l40.67 0c25.87,0 46.83,-20.98 46.83,-46.86l0 -525.05c0,-25.86 -20.97,-46.84 -46.83,-46.84zm685.03 46.84c0,-25.86 -20.98,-46.84 -46.85,-46.84l-236.01 0c-144.95,0 -233.34,76.02 -233.34,204.18 0,81.32 34.5,137.76 88.58,172.01 22.59,14.3 27.93,45.08 12.83,67.15l-62.23 90.98c-28.91,42.24 -6.62,84.43 31.05,84.43l45.3 0c15.63,0 30.24,-7.81 38.93,-20.8l104.75 -156.43c8.69,-12.98 23.29,-20.77 38.93,-20.77l35.09 0c25.88,0 46.86,20.97 46.86,46.83l0 104.3c0,25.88 20.97,46.86 46.83,46.86l42.43 0c25.87,0 46.85,-20.98 46.85,-46.86l0 -525.05zm-274.02 253.7c-66.28,0 -104.3,-35.36 -104.3,-87.51 0,-60.11 40.66,-90.17 106.96,-90.17l88.39 0c25.88,0 46.86,20.98 46.86,46.86l0 83.97c0,25.87 -20.98,46.85 -46.86,46.85l-91.05 0z"/>
  </g>
 </g>
</svg>
