<?xml version="1.0" encoding="UTF-8"?>
<!DOCTYPE svg PUBLIC "-//W3C//DTD SVG 1.1//EN" "http://www.w3.org/Graphics/SVG/1.1/DTD/svg11.dtd">
<!-- Creator: CorelDRAW 2020 (64-Bit) -->
<svg xmlns="http://www.w3.org/2000/svg" xml:space="preserve" width="208.253mm" height="27.1944mm" version="1.1" style="shape-rendering:geometricPrecision; text-rendering:geometricPrecision; image-rendering:optimizeQuality; fill-rule:evenodd; clip-rule:evenodd"
viewBox="0 0 12236.42 1597.87"
 xmlns:xlink="http://www.w3.org/1999/xlink"
 xmlns:xodm="http://www.corel.com/coreldraw/odm/2003">
 <defs>
  <style type="text/css">
   <![CDATA[
    .fil0 {fill:#00737B}
    .fil1 {fill:#00737B}
    .fil2 {fill:#898989;fill-rule:nonzero}
   ]]>
  </style>
 </defs>
 <g id="Слой_x0020_1">
  <metadata id="CorelCorpID_0Corel-Layer"/>
  <g id="_2283923074688">
   <path class="fil0" d="M732.11 0l1220.2 0c402.67,0 732.12,329.45 732.12,732.12l0 0.01c0,402.66 -329.45,732.11 -732.12,732.11l-1220.2 0c-402.66,0 -732.12,-329.45 -732.12,-732.11l0 -0.01c0,-402.67 329.45,-732.12 732.12,-732.12zm732.12 1342.22c-33.7,0 -61.01,-27.32 -61.01,-61.01 0,-33.7 27.31,-61.01 61.01,-61.01l488.09 0c268.44,0 488.07,-219.64 488.07,-488.08 0,-268.44 -219.64,-488.09 -488.07,-488.09l-408.81 0.01c-77.47,0 -140.28,62.81 -140.28,140.29 0,77.47 62.81,140.29 140.28,140.29 20.15,0 39.31,-4.25 56.63,-11.89 9.25,-4.1 17.98,-9.15 26.06,-15.06l143.1 -82.64c11.68,-6.75 23.77,-12.88 36.23,-18.34 44.94,-19.7 94.59,-30.64 146.8,-30.64 202.17,0 366.06,163.89 366.06,366.06 0,202.17 -163.89,366.06 -366.06,366.06 -66.68,0 -129.19,-17.84 -183.03,-48.99l-341.82 -197.38 -146.28 -84.48 -30.5 -17.61 -30.49 -17.61 -49.54 -28.6 -316.57 -182.81c-37.25,-21.51 -79.01,-32.63 -122.02,-32.63 -134.81,0 -244.04,109.22 -244.04,244.04 0,134.82 109.22,244.04 244.04,244.04 43,0 84.77,-11.12 122.01,-32.62l138.22 -79.82 36.04 -20.81 0 -0.01 1.6 -0.75 0 0 1.6 -0.75 0 0 1.62 -0.73 0 -0.01 1.62 -0.72 0 0 1.62 -0.72 0 0 1.63 -0.7 0 -0.01 1.63 -0.68 0 -0.01 1.64 -0.68 0 0 1.65 -0.66 0 0 1.65 -0.66 0 -0.01 1.66 -0.65 0 0 1.66 -0.63 0 -0.01 1.67 -0.62 0 -0.01 1.67 -0.61 0 0 1.68 -0.61 0 0 1.69 -0.59 0 0 1.69 -0.58 0 0 1.7 -0.57 0 0 1.7 -0.56 0 0 1.7 -0.55 0 -0.01 1.71 -0.53 0 0 1.72 -0.53 0 0 1.72 -0.51 0 0 1.72 -0.5 0 -0.01 1.73 -0.49 0 0 1.74 -0.48 0 0 1.74 -0.47 0 -0.01 1.74 -0.45 0 0 1.76 -0.45 0 0 1.76 -0.42 0 -0.01 1.76 -0.42 0 0 1.76 -0.41 0 0 1.76 -0.4 0 0 1.78 -0.39 0 0 1.77 -0.37 0 0 1.78 -0.36 0 0 1.79 -0.35 0 -0.01 1.79 -0.33 0 0 1.79 -0.33 0 0 1.8 -0.31 0 0 1.81 -0.3 0 0 1.8 -0.28 0 0 1.82 -0.28 0 -0.01 1.81 -0.26 0 0 1.82 -0.25 0 0 1.82 -0.24 0 0 1.83 -0.22 0 -0.01 1.83 -0.21 0 0 1.83 -0.2 0 0 1.84 -0.19 0 0 1.84 -0.17 0 -0.01 1.84 -0.16 0 0 1.85 -0.15 0 -0.01 1.85 -0.14 0 0 1.86 -0.13 0 0 1.86 -0.11 0 -0.01 1.86 -0.09 0 0 1.86 -0.09 0 -0.01 1.87 -0.06 0 0 1.87 -0.06 0 0 1.89 -0.05 0 0 1.87 -0.04 0 0 1.89 -0.02 0 0 1.89 -0.01 2.07 0.01 0 0 2.07 0.02 0 0 2.06 0.04 0 0 2.06 0.05 0 0.01 2.07 0.07 0 0 2.05 0.08 0 0 2.06 0.11 0 0 2.04 0.11 0 0.01 2.04 0.14 0 0 2.03 0.15 0 0.01 2.04 0.16 0 0.01 2.02 0.17 0 0.01 2.03 0.19 0 0 2.02 0.22 0 0 2.02 0.22 0 0 2.01 0.24 0 0.01 2 0.25 0 0 2 0.28 0 0 2 0.28 0 0.01 2 0.3 0 0 1.99 0.31 0 0.01 1.98 0.32 0 0 1.98 0.35 0 0.01 1.97 0.36 0 0 1.97 0.37 0 0.01 1.96 0.39 0 0 1.96 0.41 0 0 1.95 0.42 0 0 1.94 0.43 0 0.01 1.94 0.45 0 0 1.93 0.46 0 0.01 1.93 0.47 0 0.01 1.93 0.49 0 0 1.92 0.51 0 0.01 1.92 0.51 0 0.01 1.9 0.53 0 0 1.9 0.55 0 0 1.9 0.56 0 0.01 1.89 0.58 0 0 1.88 0.59 0 0 1.87 0.61 0 0 1.87 0.61 0 0.01 1.86 0.63 0 0.01 1.86 0.63 0 0 1.85 0.66 0 0 1.84 0.66 0 0.01 1.84 0.68 0 0.01 1.83 0.69 0 0.01 1.83 0.71 0 0 1.82 0.72 0 0 1.81 0.74 0 0 1.81 0.75 0 0.01 1.79 0.76 0 0 1.79 0.78 0 0 1.79 0.79 0 0.01 1.78 0.8 0 0 1.77 0.81 0 0.01 1.76 0.83 0 0 1.76 0.83 0 0.01 1.75 0.85 0 0 1.75 0.86 0 0.01 1.74 0.87 0 0.01 1.72 0.88 0 0 1.72 0.9 0 0 0.28 0.15 0 0 0.28 0.15 0 0 0.29 0.15 0 0.01 0.28 0.15 0 0 0.28 0.15 0 0.01 0.28 0.15 0 0.01 0.28 0.15 0 0.01 0.28 0.14 0 0 0.28 0.16 0 0 0.29 0.15 0 0 0.28 0.15 0 0 0.28 0.15 0 0 0.28 0.15 0 0 0.28 0.15 0 0.01 0.28 0.15 0 0.01 0.27 0.15 0 0.01 0.29 0.15 0 0 0.28 0.15 0 0.01 0.28 0.15 0 0.01 0.28 0.15 0 0 0.28 0.16 0 0.01 0.28 0.15 0 0 0.28 0.16 0 0 0.28 0.15 0 0 0.28 0.16 0 0 0.28 0.16 0 0 0.28 0.15 0 0.01 0.28 0.15 0 0.01 0.28 0.15 0 0 0.28 0.16 0 0 0.28 0.16 0 0.01 0.28 0.15 0 0 0.28 0.16 0 0.01 0.28 0.15 0 0.01 0.28 0.16 0 0 0.27 0.16 0 0 0.28 0.16 0 0 0.27 0.16 0 0 0.28 0.16 0 0 0.27 0.16 0 0 0.28 0.16 0 0.01 0.27 0.16 0 0 0.28 0.16 0 0 0.27 0.16 0 0 0.28 0.17 0 0 0.27 0.16 0 0 0.27 0.16 0 0.01 0.28 0.16 0 0 0.27 0.17 0 0 0.27 0.16 0 0 0.27 0.16 0 0 0.28 0.17 0 0 0.27 0.16 0 0 0.26 0.16 0 0 0.28 0.17 0 0 0.27 0.16 0 0.01 0.27 0.16 0 0.01 0.27 0.16 0 0 0.28 0.16 0 0 0.26 0.17 0 0.01 0.26 0.16 0 0 0.28 0.16 0 0.01 0.26 0.17 0 0 0.27 0.16 0 0.01c1.14,0.73 2.29,1.46 3.42,2.2l0 0c1.13,0.75 2.26,1.49 3.38,2.26l0 0c1.12,0.76 2.24,1.53 3.35,2.31l0 0.01c1.1,0.78 2.22,1.56 3.31,2.35l0 0.01c1.09,0.79 2.18,1.6 3.27,2.4l0 0.01c1.08,0.8 2.16,1.63 3.23,2.45l0 0c1.07,0.83 2.13,1.66 3.18,2.5l0 0.01c1.06,0.84 2.12,1.69 3.16,2.55l0 0c1.04,0.86 2.08,1.73 3.11,2.6l0 0.01c1.02,0.88 2.05,1.75 3.07,2.64l0 0.01c1.01,0.89 2.02,1.79 3.03,2.69l0 0c1,0.9 2,1.82 2.98,2.74l0 0.01c0.99,0.92 1.97,1.84 2.94,2.79l0 0c0.98,0.93 1.94,1.87 2.9,2.83l0 0c0.96,0.95 1.91,1.9 2.85,2.87l0 0.01c0.95,0.96 1.89,1.93 2.81,2.91l0 0c0.93,0.98 1.85,1.96 2.77,2.96l0 0.01c0.92,0.99 1.82,1.99 2.72,3l0 0.01c0.9,1 1.79,2.02 2.68,3.04l0 0c0.88,1.02 1.76,2.05 2.63,3.08l0 0c0.87,1.04 1.73,2.07 2.59,3.13l0 0c0.85,1.05 1.69,2.1 2.53,3.17l0 0c0.83,1.06 1.66,2.13 2.49,3.2l0 0.01c0.82,1.07 1.63,2.16 2.43,3.24l0 0c0.8,1.09 1.6,2.18 2.39,3.29l0 0c0.79,1.1 1.57,2.2 2.33,3.31l0 0.01c0.78,1.11 1.54,2.24 2.29,3.36l0 0c0.75,1.13 1.5,2.26 2.24,3.4l0 0c0.74,1.14 1.46,2.29 2.19,3.43l0 0.01c0.72,1.15 1.43,2.3 2.13,3.47l0 0c0.71,1.17 1.4,2.33 2.09,3.5l0 0.01c0.68,1.18 1.36,2.35 2.02,3.54l0 0c0.67,1.19 1.33,2.38 1.98,3.58l0 0c0.65,1.2 1.29,2.4 1.92,3.61l0 0c0.63,1.21 1.25,2.42 1.87,3.64l0 0c0.61,1.22 1.21,2.44 1.8,3.67l0 0.01c0.6,1.23 1.18,2.46 1.76,3.7l0 0.01c0.58,1.24 1.14,2.49 1.7,3.74l0 0c0.55,1.25 1.1,2.5 1.64,3.77l0 0c0.53,1.26 1.06,2.53 1.58,3.8l0 0c0.52,1.28 1.03,2.55 1.52,3.83l0 0c0.5,1.29 0.99,2.57 1.47,3.86l0 0c0.47,1.29 0.95,2.59 1.4,3.88l0 0.01c0.46,1.3 0.9,2.6 1.35,3.91l0 0.01c0.44,1.3 0.86,2.63 1.29,3.94l0 0c0.41,1.32 0.82,2.64 1.22,3.97l0 0c0.4,1.33 0.79,2.66 1.17,4l0 0c0.37,1.34 0.74,2.68 1.1,4.02l0 0c0.36,1.35 0.71,2.7 1.03,4.05l0 0c0.34,1.36 0.67,2.71 0.98,4.07l0 0c0.31,1.36 0.62,2.73 0.91,4.1l0 0c0.29,1.37 0.58,2.74 0.85,4.12l0 0c0.27,1.38 0.53,2.76 0.79,4.14l0 0.01c0.25,1.39 0.49,2.77 0.72,4.17l0 0c0.24,1.39 0.45,2.79 0.65,4.18l0 0.01c0.21,1.4 0.4,2.8 0.59,4.21l0 0c0.19,1.4 0.36,2.81 0.52,4.22l0 0.01c0.16,1.41 0.32,2.83 0.45,4.25l0 0c0.14,1.42 0.27,2.84 0.38,4.27l0 0.01c0.12,1.42 0.22,2.86 0.32,4.28l0 0c0.09,1.43 0.18,2.87 0.25,4.31l0 0c0.08,1.43 0.13,2.88 0.18,4.32l0 0.01c0.05,1.45 0.08,2.89 0.11,4.34l0 0.01c0.02,1.45 0.04,2.9 0.04,4.35l0 0.01c0,51.59 -14.9,99.72 -40.63,140.29 -20.78,32.76 -48.62,60.61 -81.39,81.39 -40.57,25.73 -88.69,40.62 -140.29,40.62l-408.8 0.01c-335.55,0 -610.1,-274.54 -610.1,-610.1 0,-335.55 274.55,-610.1 610.1,-610.1l488.09 0c33.69,0 61.01,27.32 61.01,61.01 0,33.7 -27.32,61.01 -61.01,61.01l-488.09 0c-268.44,0 -488.07,219.64 -488.07,488.08 0,268.45 219.64,488.09 488.07,488.09l408.8 -0.01c77.48,0 140.29,-62.81 140.29,-140.29l0 -0.01c0,-1.2 -0.02,-2.41 -0.04,-3.61l0 0c-0.04,-1.2 -0.08,-2.4 -0.14,-3.6l0 -0.01c-0.06,-1.19 -0.14,-2.39 -0.23,-3.57l0 -0.01c-0.09,-1.18 -0.19,-2.36 -0.31,-3.54l0 -0.01c-0.12,-1.18 -0.25,-2.35 -0.41,-3.52l0 0c-0.15,-1.16 -0.31,-2.34 -0.49,-3.5l0 0c-0.18,-1.16 -0.37,-2.32 -0.58,-3.47l0 0c-0.2,-1.15 -0.42,-2.3 -0.66,-3.44l0 -0.01c-0.23,-1.14 -0.48,-2.28 -0.73,-3.4l0 -0.01c-0.26,-1.13 -0.54,-2.25 -0.83,-3.38l0 0c-0.29,-1.12 -0.59,-2.23 -0.9,-3.34l0 -0.01c-0.31,-1.1 -0.65,-2.21 -0.99,-3.31l0 0c-0.34,-1.1 -0.69,-2.19 -1.06,-3.27l0 0c-0.37,-1.09 -0.75,-2.17 -1.15,-3.24l0 0c-0.39,-1.08 -0.8,-2.14 -1.22,-3.2l0 0c-0.42,-1.07 -0.85,-2.12 -1.29,-3.17l0 -0.01c-0.45,-1.05 -0.9,-2.09 -1.37,-3.12l0 -0.01c-0.47,-1.03 -0.95,-2.06 -1.44,-3.08l0 0c-0.49,-1.02 -1,-2.04 -1.52,-3.04l0 -0.01c-0.51,-1 -1.03,-2 -1.57,-3l0 -0.01c-0.54,-0.99 -1.09,-1.97 -1.66,-2.96l0 0c-0.57,-0.98 -1.14,-1.95 -1.73,-2.91l0 0c-0.58,-0.97 -1.18,-1.92 -1.79,-2.87l0 0c-0.61,-0.95 -1.23,-1.88 -1.86,-2.81l0 -0.01c-0.63,-0.93 -1.27,-1.86 -1.92,-2.77l0 -0.01c-0.65,-0.91 -1.31,-1.82 -1.99,-2.72l0 0c-0.67,-0.9 -1.35,-1.79 -2.05,-2.67l0 -0.01c-0.69,-0.88 -1.4,-1.76 -2.11,-2.62l0 0c-0.72,-0.87 -1.44,-1.73 -2.18,-2.57l0 0c-0.73,-0.85 -1.47,-1.69 -2.23,-2.51l0 -0.01c-0.76,-0.83 -1.52,-1.65 -2.3,-2.46l0 -0.01c-0.78,-0.8 -1.56,-1.62 -2.35,-2.4l0 0c-0.79,-0.79 -1.6,-1.58 -2.41,-2.35l0 -0.01c-0.81,-0.77 -1.63,-1.53 -2.46,-2.29l0 0c-0.82,-0.75 -1.67,-1.5 -2.51,-2.23l0 -0.01c-0.85,-0.73 -1.7,-1.46 -2.57,-2.17l0 0c-0.86,-0.72 -1.74,-1.42 -2.62,-2.12l0 0c-0.89,-0.69 -1.78,-1.37 -2.68,-2.04l0 -0.01c-0.9,-0.67 -1.81,-1.33 -2.72,-1.99l0 0c-0.92,-0.65 -1.84,-1.29 -2.78,-1.92l0 0c-0.93,-0.63 -1.87,-1.25 -2.82,-1.86l0 0c-0.95,-0.61 -1.91,-1.2 -2.87,-1.79l0 0c-0.97,-0.59 -1.94,-1.16 -2.92,-1.72l0 0c-0.98,-0.57 -1.96,-1.12 -2.96,-1.65l0 -0.01c-0.99,-0.53 -1.99,-1.06 -3,-1.57l0 -0.01c-1,-0.52 -2.02,-1.02 -3.04,-1.52l0 0c-1.02,-0.49 -2.05,-0.97 -3.09,-1.43l0 -0.01c-1.03,-0.47 -2.07,-0.92 -3.12,-1.37l0 0c-1.05,-0.45 -2.11,-0.87 -3.17,-1.29l0 0c-1.07,-0.42 -2.13,-0.82 -3.2,-1.22l0 0c-1.08,-0.39 -2.16,-0.77 -3.24,-1.14l0 -0.01c-1.09,-0.36 -2.18,-0.72 -3.28,-1.06l0 0c-1.1,-0.35 -2.2,-0.67 -3.31,-0.99l0 -0.01c-1.11,-0.31 -2.23,-0.61 -3.34,-0.9l0 -0.01c-1.12,-0.29 -2.25,-0.56 -3.38,-0.82l0 0c-1.12,-0.27 -2.26,-0.51 -3.41,-0.74l0 -0.01c-1.14,-0.24 -2.28,-0.45 -3.44,-0.65l0 -0.01c-1.15,-0.21 -2.31,-0.4 -3.47,-0.58l0 0c-1.16,-0.18 -2.33,-0.34 -3.5,-0.49l0 -0.01c-1.16,-0.15 -2.34,-0.28 -3.51,-0.4l0 0c-1.18,-0.12 -2.36,-0.22 -3.55,-0.31l0 0c-1.19,-0.09 -2.38,-0.16 -3.58,-0.22l0 0c-1.19,-0.07 -2.39,-0.11 -3.6,-0.14l0 0c-1.2,-0.04 -2.41,-0.05 -3.62,-0.05l-0.95 0 0 0.01 -0.94 0.01 0 0 -0.94 0.01 0 0 -0.93 0.02 0 0.01 -0.94 0.02 0 0 -0.94 0.04 0 0 -0.93 0.04 0 0 -0.93 0.05 0 0 -0.93 0.05 0 0.01 -0.93 0.05 0 0.01 -0.92 0.06 0 0.01 -0.93 0.06 0 0.01 -0.92 0.07 0 0.01 -0.92 0.08 0 0.01 -0.92 0.08 0 0.01 -0.91 0.09 0 0 -0.93 0.1 0 0 -0.91 0.11 0 0 -0.92 0.11 0 0.01 -0.91 0.11 0 0 -0.91 0.13 0 0 -0.91 0.12 0 0 -0.9 0.14 0 0.01 -0.9 0.14 0 0 -0.9 0.14 0 0.01 -0.9 0.15 0 0 -0.9 0.15 0 0 -0.9 0.16 0 0 -0.89 0.17 0 0.01 -0.89 0.17 0 0 -0.89 0.18 0 0 -0.89 0.18 0 0 -0.89 0.19 0 0 -0.89 0.19 0 0.01 -0.88 0.2 0 0 -0.88 0.21 0 0.01 -0.88 0.21 0 0 -0.87 0.22 0 0 -0.88 0.23 0 0.01 -0.88 0.22 0 0 -0.87 0.24 0 0.01 -0.86 0.24 0 0.01 -0.86 0.24 0 0.01 -0.87 0.25 0 0 -0.86 0.25 0 0 -0.86 0.26 0 0 -0.86 0.27 0 0 -0.85 0.27 0 0 -0.85 0.28 0 0 -0.85 0.28 0 0 -0.85 0.29 0 0.01 -0.85 0.29 0 0.01 -0.85 0.29 0 0.01 -0.83 0.3 0 0.01 -0.83 0.31 0 0 -0.83 0.32 0 0.01 -0.83 0.31 0 0.01 -0.83 0.33 0 0 -0.83 0.32 0 0 -0.82 0.34 0 0 -0.82 0.34 0 0 -0.82 0.35 0 0 -0.81 0.35 0 0.01 -0.82 0.35 0 0 -0.43 0.19 0 0 -0.43 0.19 0 0 -0.43 0.19 0 0.01 -0.42 0.19 0 0 -0.43 0.2 0 0 -0.42 0.2 0 0 -0.43 0.2 0 0 -0.42 0.2 0 0 -0.43 0.2 0 0.01 -0.43 0.21 0 0 -0.42 0.2 0 0.01 -0.43 0.21 0 0 -0.42 0.21 0 0 -0.42 0.21 0 0 -0.43 0.21 0 0 -0.42 0.22 0 0 -0.42 0.21 0 0 -0.42 0.21 0 0.01 -0.42 0.22 0 0 -0.42 0.22 0 0 -0.42 0.22 0 0 -0.42 0.22 0 0.01 -0.42 0.22 0 0 -0.41 0.22 0 0.01 -0.41 0.22 0 0.01 -0.42 0.22 0 0.01 -0.41 0.22 0 0 -0.41 0.23 0 0 -0.41 0.24 0 0 -0.41 0.23 0 0 -0.41 0.24 0 0 -0.41 0.24 0 0 -0.41 0.24 0 0 -0.41 0.24 0 0 -0.4 0.24 0 0.01 -0.41 0.24 0 0.01 -0.41 0.24 0 0 -0.4 0.24 0 0.01 -0.41 0.24 0 0 -0.4 0.25 0 0 -0.4 0.25 0 0 -0.4 0.25 0 0 -0.4 0.25 0 0.01 -0.4 0.25 0 0.01 -0.39 0.25 0 0 -0.4 0.25 0 0 -0.39 0.25 0 0.01 -0.39 0.25 0 0 -0.39 0.26 0 0.01 -0.39 0.25 0 0.01 -0.39 0.25 0 0.01 -0.39 0.25 0 0.01 -0.39 0.26 0 0 -0.39 0.27 0 0 -0.39 0.26 0 0.01 -0.38 0.26 0 0 -0.38 0.27 0 0.01 -0.39 0.26 0 0 -0.39 0.26 0 0 -0.38 0.28 0 0 -0.39 0.27 0 0 -0.38 0.28 0 0 -0.38 0.27 0 0.01 -0.38 0.28 0 0 -143.1 82.63 0 0.01 -0.55 0.31 0 0.01 -0.54 0.31 0 0 -0.55 0.31 0 0 -0.56 0.32 0 0.01 -0.54 0.31 0 0.01 -0.56 0.31 0 0 -0.55 0.31 0 0.01 -0.55 0.31 0 0 -0.55 0.31 0 0.01 -0.55 0.31 0 0 -0.55 0.31 0 0 -0.55 0.31 0 0 -0.56 0.3 0 0.01 -0.55 0.3 0 0.01 -0.56 0.3 0 0 -0.55 0.3 0 0 -0.56 0.3 0 0.01 -0.56 0.29 0 0.01 -0.56 0.29 0 0.01 -0.56 0.29 0 0 -0.56 0.3 0 0 -0.56 0.3 0 0 -0.56 0.29 0 0 -0.56 0.29 0 0.01 -0.56 0.29 0 0.01 -0.56 0.29 0 0.01 -0.56 0.29 0 0.01 -0.56 0.28 0 0 -0.56 0.29 0 0.01 -0.56 0.29 0 0 -0.57 0.29 0 0.01 -0.56 0.28 0 0.01 -0.56 0.28 0 0.01 -0.58 0.28 0 0.01 -0.56 0.28 0 0 -0.56 0.28 0 0.01 -0.58 0.28 0 0 -0.56 0.28 0 0.01 -0.58 0.28 0 0 -0.56 0.28 0 0.01 -0.57 0.27 0 0 -0.58 0.28 0 0 -0.57 0.28 0 0 -0.58 0.28 0 0 -0.57 0.27 0 0 -0.58 0.28 0 0 -0.58 0.26 0 0.01 -0.58 0.27 0 0.01 -0.57 0.26 0 0 -0.58 0.28 0 0 -0.57 0.26 0 0 -0.58 0.26 0 0.01 -0.58 0.26 0 0.01 -0.58 0.26 0 0.01 -0.58 0.26 0 0.01 -0.58 0.26 0 0 -0.58 0.26 0 0.01 -0.58 0.26 0 0 -0.58 0.26 0 0 -0.59 0.26 0 0 -0.58 0.26 0 0.01 -0.58 0.25 0 0 -0.58 0.26 0 0 -0.59 0.25 0 0c-44.94,19.7 -94.59,30.64 -146.8,30.64 -202.17,0 -366.05,-163.89 -366.05,-366.06 0,-202.17 163.89,-366.06 366.05,-366.06 66.68,0 129.19,17.84 183.03,48.99l366.08 211.4 122.02 70.46 0 -0.01 60.98 35.22 49.54 28.61 316.57 182.81c37.25,21.51 79.01,32.63 122.01,32.63 134.82,0 244.04,-109.23 244.04,-244.04 0,-134.82 -109.22,-244.04 -244.04,-244.04 -43,0 -84.76,11.12 -122.01,32.62l-138.21 79.81 -36.05 20.81c-34.1,16.23 -72.27,25.32 -112.56,25.32 -44.31,0 -86.05,-10.99 -122.66,-30.39 -6.02,-3.19 -11.9,-6.61 -17.63,-10.25 -73.34,-46.51 -122.02,-128.41 -122.02,-221.67 0,-51.59 14.9,-99.72 40.63,-140.29 20.78,-32.76 48.62,-60.61 81.39,-81.38 40.57,-25.74 88.69,-40.63 140.28,-40.63l408.81 -0.01c335.55,0 610.1,274.55 610.1,610.1 0,335.56 -274.54,610.1 -610.1,610.1l-488.09 0zm-323.32 -524.62l0 0 0 0z"/>
   <path class="fil1" d="M3492.28 414.1c0,-37.14 35.91,-63.11 71.52,-52.59 76.97,22.74 124.6,83.72 124.6,167.57 0,85.54 -47.69,146.26 -124.75,168.77 -35.58,10.4 -71.37,-15.54 -71.37,-52.6l0 -231.15zm-522.64 112.22l0 -0.74c0.18,-173.51 124.81,-303.58 329.95,-315.82 17.94,-1.06 32.03,-15.79 32.03,-33.77 0,-18.73 15.18,-33.91 33.93,-33.91l92.81 0c18.73,0 33.91,15.18 33.91,33.91l0 0.02c0,17.98 14.1,32.7 32.03,33.77 204.41,12.29 329.96,142.57 329.96,317.22 0,173.04 -121.38,307.17 -323.96,322.04 -21.31,1.55 -38.03,18.89 -38.03,40.25l0 0c0,22.31 -18.08,40.39 -40.4,40.39l-79.86 0c-22.31,0 -40.4,-18.08 -40.4,-40.39 0,-21.36 -16.7,-38.7 -38.02,-40.25 -202.46,-14.86 -323.8,-148.86 -323.97,-322.71zm361.99 119.05c0,35.71 -33.7,62.86 -68.15,53.43 -79.25,-21.72 -129.01,-82.95 -129.01,-169.72 0,-83.92 48.38,-144.93 125.72,-167.62 35.61,-10.45 71.44,15.47 71.44,52.59l0 231.32zm1227.85 -475.15l-64.4 0c-18.43,0 -35.64,9.19 -45.91,24.49l-231.19 344.55c-22.17,33.02 -73.69,17.33 -73.69,-22.43l0 -291.32c0,-30.52 -24.74,-55.29 -55.29,-55.29l-47.99 0c-30.52,0 -55.29,24.77 -55.29,55.29l0 619.66c0,30.55 24.77,55.31 55.29,55.31l66.39 0c18.49,0 35.75,-9.24 46,-24.62l225 -337.5c23.31,-34.97 77.81,-18.47 77.81,23.56l0 283.26c0,30.55 24.76,55.31 55.29,55.31l47.99 0c30.54,0 55.29,-24.76 55.29,-55.31l0 -619.66c0,-30.52 -24.75,-55.29 -55.29,-55.29zm382.86 0c-30.53,0 -55.29,24.77 -55.29,55.29l0 95.97c0,300.72 -28.66,403.82 -80.86,435.7 -10.52,6.43 -22.2,10.04 -34.27,11.7 -26.49,3.7 -47.48,24.01 -49.58,50.67l-2.33 29.5c-2.4,30.38 20.25,57.04 50.63,59.47 10.58,0.84 20.94,1.32 29.83,1.32 166.91,0 236.8,-109.52 236.8,-539.32 0,-30.55 24.76,-55.31 55.29,-55.31l100.15 0c30.55,0 55.29,24.76 55.29,55.31l0 474.64c0,30.55 24.76,55.31 55.29,55.31l50.07 0c30.54,0 55.29,-24.76 55.29,-55.31l0 -619.66c0,-30.52 -24.75,-55.29 -55.29,-55.29l-411.02 0zm641.57 674.95c0,30.55 24.77,55.31 55.29,55.31l250.37 0c171.08,0 277.49,-94.95 277.49,-245.15 0,-142.92 -98.07,-236.8 -267.06,-236.8l-100.15 0c-30.53,0 -55.29,-24.77 -55.29,-55.31l0 -137.7c0,-30.52 -24.74,-55.29 -55.29,-55.29l-50.07 0c-30.52,0 -55.29,24.77 -55.29,55.29l0 619.66zm302.53 -288.96c80.33,0 121.01,35.47 121.01,97.01 0,67.81 -40.68,102.24 -119.97,102.24l-87.63 0c-30.53,0 -55.29,-24.75 -55.29,-55.27l0 -88.68c0,-30.54 24.76,-55.3 55.29,-55.3l86.58 0zm629.05 344.27l50.08 0c30.54,0 55.28,-24.76 55.28,-55.31l0 -471.53c0,-30.52 24.77,-55.27 55.29,-55.27l111.63 0c30.54,0 55.28,-24.76 55.28,-55.28l0 -37.58c0,-30.52 -24.74,-55.29 -55.28,-55.29l-494.48 0c-30.52,0 -55.28,24.77 -55.28,55.29l0 37.58c0,30.52 24.76,55.28 55.28,55.28l111.63 0c30.54,0 55.29,24.75 55.29,55.27l0 471.53c0,30.55 24.76,55.31 55.28,55.31zm505.95 0l50.08 0c30.54,0 55.28,-24.76 55.28,-55.31l0 -108.49c0,-30.53 24.77,-55.27 55.29,-55.27l66.77 0c163.79,0 295.23,-87.63 295.23,-256.65 0,-151.27 -105.36,-254.54 -279.58,-254.54l-243.07 0c-30.52,0 -55.28,24.77 -55.28,55.29l0 619.66c0,30.55 24.76,55.31 55.28,55.31zm105.36 -417.28l0 -112.66c0,-30.55 24.77,-55.31 55.29,-55.31l68.85 0c80.33,0 130.4,38.6 130.4,110.59 0,64.66 -46.94,112.65 -127.27,112.65l-71.98 0c-30.52,0 -55.29,-24.74 -55.29,-55.27zm890.9 429.79c225.33,0 389.12,-170.03 389.12,-377.62 0,-209.71 -161.69,-377.64 -387.03,-377.64 -225.33,0 -389.1,170.04 -389.1,377.64 0,209.66 161.7,377.62 387.01,377.62zm2.09 -148.14c-129.35,0 -221.16,-104.32 -221.16,-229.48 0,-127.29 89.73,-229.52 219.07,-229.52 129.36,0 221.16,104.34 221.16,229.52 0,127.27 -89.7,229.48 -219.08,229.48zm682.26 -594.62c-30.54,0 -55.28,24.77 -55.28,55.29l0 95.97c0,293.53 -27.32,398.78 -77.17,433.29 -12.09,8.37 -25.93,12.69 -40.26,14.39 -25.85,3.08 -45.3,25.25 -47.35,51.21l-2.26 28.68c-2.4,30.38 20.27,57.04 50.63,59.47 10.57,0.84 20.93,1.32 29.83,1.32 166.91,0 236.83,-109.52 236.83,-539.32 0,-30.55 24.74,-55.31 55.27,-55.31l100.15 0c30.54,0 55.31,24.76 55.31,55.31l0 474.64c0,30.55 24.74,55.31 55.27,55.31l50.07 0c30.52,0 55.29,-24.76 55.29,-55.31l0 -619.66c0,-30.52 -24.77,-55.29 -55.29,-55.29l-411.03 0zm996.28 742.76c225.32,0 389.1,-170.03 389.1,-377.62 0,-209.71 -161.69,-377.64 -387.03,-377.64 -225.33,0 -389.12,170.04 -389.12,377.64 0,209.66 161.7,377.62 387.05,377.62zm2.07 -148.14c-129.35,0 -221.16,-104.32 -221.16,-229.48 0,-127.29 89.72,-229.52 219.09,-229.52 129.34,0 221.15,104.34 221.15,229.52 0,127.27 -89.72,229.48 -219.08,229.48zm745.91 -449.62l238.88 0c30.53,0 55.29,-24.74 55.29,-55.29l0 -34.43c0,-30.52 -24.76,-55.29 -55.29,-55.29l-399.54 0c-30.54,0 -55.29,24.77 -55.29,55.29l0 619.66c0,30.55 24.75,55.31 55.29,55.31l50.07 0c30.54,0 55.29,-24.76 55.29,-55.31l0 -474.64c0,-30.55 24.75,-55.31 55.3,-55.31zm981.66 -145.01l-64.42 0c-18.43,0 -35.64,9.19 -45.91,24.49l-233.21 347.57c-21.56,32.11 -71.67,16.85 -71.67,-21.8l0 -294.97c0,-30.52 -24.76,-55.29 -55.29,-55.29l-47.99 0c-30.52,0 -55.29,24.77 -55.29,55.29l0 619.66c0,30.55 24.77,55.31 55.29,55.31l66.39 0c18.49,0 35.75,-9.24 46,-24.62l234.9 -352.36c20.34,-30.51 67.92,-16.11 67.92,20.56l0 301.11c0,30.55 24.74,55.31 55.27,55.31l48 0c30.52,0 55.27,-24.76 55.27,-55.31l0 -619.66c0,-30.52 -24.75,-55.29 -55.27,-55.29zm808.47 55.29c0,-30.52 -24.77,-55.29 -55.29,-55.29l-278.54 0c-171.07,0 -275.38,89.72 -275.38,240.98 0,95.97 40.71,162.58 104.54,203.01 26.66,16.88 32.96,53.2 15.14,79.25l-73.44 107.38c-34.12,49.86 -7.81,99.64 36.64,99.64l53.46 0c18.44,0 35.69,-9.22 45.95,-24.54l123.63 -184.62c10.26,-15.31 27.49,-24.51 45.95,-24.51l41.41 0c30.54,0 55.31,24.75 55.31,55.27l0 123.1c0,30.55 24.74,55.31 55.27,55.31l50.07 0c30.52,0 55.29,-24.76 55.29,-55.31l0 -619.66zm-323.39 299.42c-78.22,0 -123.1,-41.73 -123.1,-103.28 0,-70.94 47.99,-106.42 126.22,-106.42l104.32 0c30.54,0 55.31,24.76 55.31,55.31l0 99.1c0,30.53 -24.77,55.29 -55.31,55.29l-107.45 0z"/>
  </g>
  <path class="fil2" d="M3139.33 1127.55l140.89 0c37.09,0 67.36,11.87 91,35.51 23.64,23.64 35.51,54 35.51,91.28 0,37.37 -11.87,67.92 -35.6,91.65 -23.73,23.73 -54.19,35.6 -91.47,35.6l-91.09 0 0 140.98 -49.24 0 0 -395.02zm49.24 43.82l0 166.4 78.85 0c28.03,0 49.89,-7.29 65.4,-21.96 15.51,-14.76 23.26,-35.22 23.26,-61.47 0,-26.25 -7.75,-46.72 -23.17,-61.2 -15.42,-14.48 -37.28,-21.77 -65.5,-21.77l-78.85 0z"/>
  <path id="1" class="fil2" d="M3574.99 1274.32c-22.05,0 -40.36,7.57 -54.84,22.8 -14.57,15.23 -22.52,34.85 -24.01,58.77l154.72 0c-0.56,-24.11 -7.76,-43.73 -21.68,-58.86 -13.83,-15.14 -31.95,-22.7 -54.19,-22.7zm74.75 166.68l46.81 0c-4.2,25.13 -17.29,45.87 -39.33,62.13 -21.96,16.25 -48.4,24.38 -79.23,24.38 -40.64,0 -72.69,-13.17 -96.04,-39.43 -23.36,-26.26 -35.04,-61.85 -35.04,-106.79 0,-44.47 11.68,-80.35 35.13,-107.54 23.45,-27.19 54.75,-40.83 93.8,-40.83 38.31,0 68.58,12.9 90.82,38.59 22.33,25.79 33.44,60.26 33.44,103.52l0 18.03 -204.23 0 0 2.8c0,27.38 7.47,49.24 22.52,65.68 14.95,16.35 35.23,24.57 60.73,24.57 17.84,0 33.07,-4.11 45.68,-12.24 12.62,-8.23 20.93,-19.25 24.95,-32.89z"/>
  <polygon id="2" class="fil2" points="3752.89,1522.57 3752.89,1237.89 3799.98,1237.89 3799.98,1483.42 3905.08,1483.42 3905.08,1237.89 3952.17,1237.89 3952.17,1483.42 4057.28,1483.42 4057.28,1237.89 4104.37,1237.89 4104.37,1522.57 "/>
  <path id="3" class="fil2" d="M4285.62 1274.32c-22.05,0 -40.36,7.57 -54.84,22.8 -14.57,15.23 -22.52,34.85 -24.01,58.77l154.72 0c-0.56,-24.11 -7.76,-43.73 -21.68,-58.86 -13.83,-15.14 -31.95,-22.7 -54.19,-22.7zm74.75 166.68l46.81 0c-4.2,25.13 -17.29,45.87 -39.33,62.13 -21.96,16.25 -48.4,24.38 -79.23,24.38 -40.64,0 -72.69,-13.17 -96.04,-39.43 -23.36,-26.26 -35.04,-61.85 -35.04,-106.79 0,-44.47 11.68,-80.35 35.13,-107.54 23.45,-27.19 54.75,-40.83 93.8,-40.83 38.31,0 68.58,12.9 90.82,38.59 22.33,25.79 33.44,60.26 33.44,103.52l0 18.03 -204.23 0 0 2.8c0,27.38 7.47,49.24 22.52,65.68 14.95,16.35 35.23,24.57 60.73,24.57 17.84,0 33.07,-4.11 45.68,-12.24 12.62,-8.23 20.93,-19.25 24.95,-32.89z"/>
  <polygon id="4" class="fil2" points="4651.03,1522.57 4651.03,1394.48 4510.6,1394.48 4510.6,1522.57 4463.51,1522.57 4463.51,1237.89 4510.6,1237.89 4510.6,1355.33 4651.03,1355.33 4651.03,1237.89 4698.11,1237.89 4698.11,1522.57 "/>
  <polygon id="5" class="fil2" points="4812.28,1522.57 4765.2,1522.57 4765.2,1237.89 4812.28,1237.89 4812.28,1449.79 4814.52,1449.79 4956.82,1237.89 5003.9,1237.89 5003.9,1522.57 4956.82,1522.57 4956.82,1310.67 4954.67,1310.67 "/>
  <path id="6" class="fil2" d="M5173.11 1382.14l54.47 0 0 -105.11 -54.47 0c-18.59,0 -33.36,4.85 -44.19,14.48 -10.84,9.72 -16.26,22.99 -16.26,39.99 0,14.95 5.51,27.19 16.54,36.53 11.02,9.44 25.69,14.11 43.91,14.11zm54.47 140.42l0 -101.28 -50.36 0 -72.22 101.28 -54.47 0 79.32 -110.06c-20.28,-5.79 -36.07,-15.79 -47.46,-29.81 -11.4,-14.01 -17.1,-30.83 -17.1,-50.36 0,-29.24 9.72,-52.23 29.15,-69.14 19.44,-16.91 45.6,-25.32 78.39,-25.32l101.84 0 0 284.68 -47.09 0z"/>
  <path id="7" class="fil2" d="M5645.21 1483.42l0 -206.39 -106.79 0 -8.68 119.87c-2.8,39.06 -10.56,67.18 -23.27,84.37l0 2.15 138.74 0zm-172.75 114.45l-44.29 0 0 -114.45 23.83 0c19.15,-12.62 30.37,-41.76 33.63,-87.55l10.93 -157.99 196.01 0 0 245.54 45.13 0 0 114.45 -44.29 0 0 -75.3 -220.96 0 0 75.3z"/>
  <path id="8" class="fil2" d="M5856.26 1396.9c-1.31,16.45 -3.08,30.93 -5.33,43.54 -2.33,12.62 -5.51,24.38 -9.71,35.32 -4.21,10.93 -9.34,19.9 -15.51,27 -6.07,7.01 -13.64,12.43 -22.7,16.35 -9.06,3.92 -19.43,5.88 -31.29,5.88 -6.63,0 -12.24,-0.93 -17,-2.98l0 -42.98c4.39,1.5 9.25,2.24 14.48,2.24 13.36,0 23.27,-7.29 29.9,-21.77 6.55,-14.58 10.75,-35.78 12.52,-63.63l11.02 -157.99 186.4 0 0 284.68 -47.09 0 0 -245.53 -96.89 0 -8.78 119.87z"/>
  <path id="9" class="fil2" d="M6178.41 1382.14l54.47 0 0 -105.11 -54.47 0c-18.59,0 -33.36,4.85 -44.19,14.48 -10.84,9.72 -16.26,22.99 -16.26,39.99 0,14.95 5.51,27.19 16.54,36.53 11.02,9.44 25.69,14.11 43.91,14.11zm54.47 140.42l0 -101.28 -50.36 0 -72.22 101.28 -54.47 0 79.32 -110.06c-20.28,-5.79 -36.07,-15.79 -47.46,-29.81 -11.4,-14.01 -17.1,-30.83 -17.1,-50.36 0,-29.24 9.72,-52.23 29.15,-69.14 19.44,-16.91 45.6,-25.32 78.39,-25.32l101.84 0 0 284.68 -47.09 0z"/>
  <path id="10" class="fil2" d="M6579.87 1527.52c-39.8,0 -71.75,-13.27 -95.76,-39.9 -24.11,-26.53 -36.16,-62.32 -36.16,-107.35 0,-45.13 12.05,-80.91 36.16,-107.44 24.01,-26.63 55.96,-39.9 95.76,-39.9 39.61,0 71.47,13.27 95.58,39.9 24.01,26.53 36.06,62.32 36.06,107.44 0,44.84 -12.05,80.63 -36.06,107.26 -24.11,26.63 -55.97,39.99 -95.58,39.99zm-60.91 -69.79c15.04,18.59 35.41,27.84 60.91,27.84 25.6,0 45.78,-9.25 60.73,-27.75 15.04,-18.5 22.52,-44.38 22.52,-77.55 0,-33.26 -7.47,-59.14 -22.52,-77.64 -14.95,-18.5 -35.13,-27.75 -60.73,-27.75 -25.51,0 -45.87,9.25 -60.91,27.84 -15.04,18.69 -22.61,44.47 -22.61,77.55 0,32.98 7.57,58.77 22.61,77.45z"/>
  <path id="11" class="fil2" d="M6981.43 1522.57l-47.09 0 0 -122.86 -4.11 0c-17.19,14.77 -40.17,22.15 -68.95,22.15 -33.45,0 -59.15,-9.25 -77.08,-27.66 -18.03,-18.4 -27,-43.26 -27,-74.46l0 -81.84 47.09 0 0 81.29c0,18.97 5.05,33.91 15.04,44.75 10.09,10.84 24.48,16.35 43.26,16.35 31.21,0 55.13,-9.34 71.75,-27.93l0 -114.45 47.09 0 0 284.68z"/>
  <polygon id="12" class="fil2" points="7095.23,1522.57 7048.15,1522.57 7048.15,1237.89 7095.23,1237.89 7095.23,1449.79 7097.47,1449.79 7239.76,1237.89 7286.85,1237.89 7286.85,1522.57 7239.76,1522.57 7239.76,1310.67 7237.61,1310.67 "/>
  <path id="13" class="fil2" d="M7589.38 1325.53l-47.09 0c-4.39,-14.85 -12.7,-26.91 -24.94,-36.44 -12.15,-9.53 -27.75,-14.2 -46.81,-14.2 -24.76,0 -44.66,9.62 -59.61,28.87 -14.95,19.25 -22.52,44.76 -22.52,76.52 0,32.23 7.57,57.93 22.61,76.89 15.04,18.97 35.13,28.4 60.07,28.4 18.59,0 34.1,-4.3 46.44,-13.08 12.33,-8.78 20.74,-21.11 25.32,-37l47.09 0c-4.77,27.38 -17.94,49.61 -39.43,66.53 -21.58,17 -48.12,25.51 -79.7,25.51 -39.71,0 -71.47,-13.27 -95.2,-39.9 -23.73,-26.53 -35.6,-62.32 -35.6,-107.35 0,-44.38 11.86,-79.97 35.6,-106.97 23.73,-26.91 55.31,-40.37 94.65,-40.37 32.7,0 59.61,8.97 80.63,26.82 21.12,17.94 33.91,39.8 38.49,65.77z"/>
  <polygon id="14" class="fil2" points="7847.52,1237.89 7847.52,1277.04 7755.59,1277.04 7755.59,1522.57 7708.5,1522.57 7708.5,1277.04 7616.48,1277.04 7616.48,1237.89 "/>
  <polygon id="15" class="fil2" points="7988.23,1372.61 8125.01,1522.57 8063.72,1522.57 7940.86,1385.69 7938.62,1385.69 7938.62,1522.57 7891.53,1522.57 7891.53,1237.89 7938.62,1237.89 7938.62,1363.83 7940.86,1363.83 8062.41,1237.89 8121.18,1237.89 "/>
  <polygon id="16" class="fil2" points="8211.81,1522.57 8164.72,1522.57 8164.72,1237.89 8211.81,1237.89 8211.81,1449.79 8214.04,1449.79 8356.34,1237.89 8403.43,1237.89 8403.43,1522.57 8356.34,1522.57 8356.34,1310.67 8354.19,1310.67 "/>
  <path id="17" class="fil2" d="M8700.44 1276.48l-68.2 0 0 79.7 61.1 0c35.41,0 53.06,-13.55 53.06,-40.55 0,-12.62 -3.92,-22.24 -11.77,-28.97 -7.85,-6.82 -19.25,-10.18 -34.2,-10.18zm-3.27 118l-64.93 0 0 89.51 73.44 0c17.1,0 30.27,-3.83 39.33,-11.4 9.15,-7.57 13.73,-18.5 13.73,-32.98 0,-30.08 -20.55,-45.13 -61.57,-45.13zm-112.02 128.09l0 -284.68 121.83 0c26.63,0 47.65,6.45 62.97,19.44 15.32,12.99 22.99,30.74 22.99,53.35 0,14.48 -4.48,27.56 -13.55,39.43 -9.06,11.86 -20.08,19.15 -33.26,21.96l0 2.14c17.94,2.53 32.23,9.91 43.16,21.86 10.83,12.05 16.26,27 16.26,44.66 0,25.22 -8.69,45.13 -26.16,59.79 -17.37,14.67 -41.29,22.05 -71.57,22.05l-122.67 0z"/>
  <path id="18" class="fil2" d="M8978.2 1527.52c-39.8,0 -71.75,-13.27 -95.76,-39.9 -24.11,-26.53 -36.16,-62.32 -36.16,-107.35 0,-45.13 12.05,-80.91 36.16,-107.44 24.01,-26.63 55.96,-39.9 95.76,-39.9 39.61,0 71.47,13.27 95.58,39.9 24.01,26.53 36.06,62.32 36.06,107.44 0,44.84 -12.05,80.63 -36.06,107.26 -24.11,26.63 -55.97,39.99 -95.58,39.99zm-60.91 -69.79c15.04,18.59 35.41,27.84 60.91,27.84 25.6,0 45.78,-9.25 60.73,-27.75 15.04,-18.5 22.52,-44.38 22.52,-77.55 0,-33.26 -7.47,-59.14 -22.52,-77.64 -14.95,-18.5 -35.13,-27.75 -60.73,-27.75 -25.51,0 -45.87,9.25 -60.91,27.84 -15.04,18.69 -22.61,44.47 -22.61,77.55 0,32.98 7.57,58.77 22.61,77.45z"/>
  <path id="19" class="fil2" d="M9351.55 1483.42l0 -206.39 -106.79 0 -8.68 119.87c-2.8,39.06 -10.56,67.18 -23.27,84.37l0 2.15 138.74 0zm-172.75 114.45l-44.29 0 0 -114.45 23.83 0c19.15,-12.62 30.37,-41.76 33.63,-87.55l10.93 -157.99 196.01 0 0 245.54 45.13 0 0 114.45 -44.29 0 0 -75.3 -220.96 0 0 75.3z"/>
  <path id="20" class="fil2" d="M9730.12 1522.57l0 -284.68 47.09 0 0 284.68 -47.09 0zm-143.42 -154.63l-53.16 0 0 115.48 53.16 0c18.41,0 33.17,-5.33 44.19,-15.89 11.03,-10.55 16.54,-24.57 16.54,-41.85 0,-17.57 -5.51,-31.58 -16.54,-42.05 -11.02,-10.46 -25.78,-15.69 -44.19,-15.69zm-100.25 154.63l0 -284.68 47.09 0 0 90.91 54 0c32.61,0 58.58,8.78 77.92,26.25 19.43,17.56 29.06,41.01 29.06,70.63 0,29.52 -9.62,53.07 -29.06,70.63 -19.34,17.47 -45.31,26.25 -77.92,26.25l-101.09 0z"/>
  <polygon id="21" class="fil2" points="10143.64,1522.57 10143.64,1277.04 10005.93,1277.04 10005.93,1522.57 9958.84,1522.57 9958.84,1237.89 10191.01,1237.89 10191.01,1522.57 "/>
  <path id="22" class="fil2" d="M10376 1527.52c-39.8,0 -71.75,-13.27 -95.76,-39.9 -24.11,-26.53 -36.16,-62.32 -36.16,-107.35 0,-45.13 12.05,-80.91 36.16,-107.44 24.01,-26.63 55.96,-39.9 95.76,-39.9 39.61,0 71.47,13.27 95.58,39.9 24.01,26.53 36.06,62.32 36.06,107.44 0,44.84 -12.05,80.63 -36.06,107.26 -24.11,26.63 -55.97,39.99 -95.58,39.99zm-60.91 -69.79c15.04,18.59 35.41,27.84 60.91,27.84 25.6,0 45.78,-9.25 60.73,-27.75 15.04,-18.5 22.52,-44.38 22.52,-77.55 0,-33.26 -7.47,-59.14 -22.52,-77.64 -14.95,-18.5 -35.13,-27.75 -60.73,-27.75 -25.51,0 -45.87,9.25 -60.91,27.84 -15.04,18.69 -22.61,44.47 -22.61,77.55 0,32.98 7.57,58.77 22.61,77.45z"/>
  <path id="23" class="fil2" d="M10749.34 1483.42l0 -206.39 -106.79 0 -8.68 119.87c-2.8,39.06 -10.56,67.18 -23.27,84.37l0 2.15 138.74 0zm-172.75 114.45l-44.29 0 0 -114.45 23.83 0c19.15,-12.62 30.37,-41.76 33.63,-87.55l10.93 -157.99 196.01 0 0 245.54 45.13 0 0 114.45 -44.29 0 0 -75.3 -220.96 0 0 75.3z"/>
  <polygon id="24" class="fil2" points="11095.87,1372.61 11232.65,1522.57 11171.36,1522.57 11048.5,1385.69 11046.26,1385.69 11046.26,1522.57 10999.18,1522.57 10999.18,1237.89 11046.26,1237.89 11046.26,1363.83 11048.5,1363.83 11170.05,1237.89 11228.82,1237.89 "/>
  <path id="25" class="fil2" d="M11348.51 1396.9c-1.31,16.45 -3.08,30.93 -5.33,43.54 -2.33,12.62 -5.51,24.38 -9.71,35.32 -4.21,10.93 -9.34,19.9 -15.51,27 -6.07,7.01 -13.64,12.43 -22.7,16.35 -9.06,3.92 -19.43,5.88 -31.29,5.88 -6.63,0 -12.24,-0.93 -17,-2.98l0 -42.98c4.39,1.5 9.25,2.24 14.48,2.24 13.36,0 23.27,-7.29 29.9,-21.77 6.55,-14.58 10.75,-35.78 12.52,-63.63l11.02 -157.99 186.4 0 0 284.68 -47.09 0 0 -245.53 -96.89 0 -8.78 119.87z"/>
  <path id="26" class="fil2" d="M11795.47 1527.52c-37.75,0 -68.01,-11.77 -90.9,-35.32 -22.8,-23.54 -35.41,-56.15 -38.03,-97.73l-51.2 0 0 128.09 -47.09 0 0 -284.68 47.09 0 0 117.44 52.32 0c4.21,-38.31 17.47,-68.3 39.99,-89.88 22.42,-21.68 51.67,-32.52 87.82,-32.52 39.99,0 71.48,13.09 94.55,39.34 23.08,26.16 34.66,62.13 34.66,108 0,45.6 -11.58,81.56 -34.66,107.82 -23.07,26.25 -54.56,39.43 -94.55,39.43zm-59.51 -69.7c13.92,18.31 33.82,27.56 59.51,27.56 25.69,0 45.6,-9.25 59.52,-27.56 14.01,-18.31 20.93,-44.19 20.93,-77.55 0,-33.63 -6.92,-59.52 -20.93,-77.73 -13.92,-18.31 -33.82,-27.38 -59.52,-27.38 -25.69,0 -45.59,9.06 -59.51,27.38 -14.02,18.21 -20.93,44.1 -20.93,77.73 0,33.36 6.91,59.23 20.93,77.55z"/>
  <path id="27" class="fil2" d="M12194.88 1522.57l-47.09 0 0 -122.86 -4.11 0c-17.19,14.77 -40.17,22.15 -68.95,22.15 -33.45,0 -59.15,-9.25 -77.08,-27.66 -18.03,-18.4 -27,-43.26 -27,-74.46l0 -81.84 47.09 0 0 81.29c0,18.97 5.05,33.91 15.04,44.75 10.09,10.84 24.48,16.35 43.26,16.35 31.21,0 55.13,-9.34 71.75,-27.93l0 -114.45 47.09 0 0 284.68z"/>
 </g>
</svg>
