<svg xmlns="http://www.w3.org/2000/svg" viewBox="0 0 384 240"><defs><style>.cls-1{fill:#55bec1;}</style></defs><title>vk</title><g id="Слой_2" data-name="Слой 2"><g id="Слой_1-2" data-name="Слой 1"><path class="cls-1" d="M301,541.94c55.55,0,35.74-35.16,40-45.28-.06-7.55-.13-14.81.13-19.23,3.52,1,11.82,5.2,29,21.87,26.49,26.72,33.25,42.64,54.65,42.64h39.37c12.48,0,19-5.16,22.22-9.5s6.21-11.55,2.85-23c-8.78-27.58-60-75.21-63.2-80.24.48-.93,1.25-2.16,1.65-2.8h0C437.71,413,476.3,355.21,482,332.07a.25.25,0,0,0,0-.13c3.08-10.55.26-17.4-2.65-21.28-4.39-5.79-11.36-8.72-20.78-8.72H419.2C406,301.94,396,308.59,391,320.7c-8.47,21.52-32.24,65.77-50.06,81.44-.55-22.2-.18-39.14.1-51.73.58-24.56,2.44-48.47-23.05-48.47H256.06c-16,0-31.25,17.45-14.7,38.15,14.46,18.14,5.2,28.25,8.32,78.59-12.16-13-33.8-48.26-49.09-93.26C196.3,313.24,189.81,302,171.52,302H132.14c-16,0-25.5,8.7-25.5,23.28,0,32.74,72.46,216.7,194.32,216.7ZM171.52,326c3.47,0,3.82,0,6.4,7.31,15.66,46.13,50.8,114.39,76.46,114.39,19.28,0,19.28-19.76,19.28-27.2V361.23c-1.06-19.61-8.2-29.36-12.88-35.29l56.13.07c0,.27-.32,65.52.15,81.33,0,22.44,17.83,35.31,45.65,7.15,29.36-33.14,49.66-82.67,50.48-84.69,1.2-2.88,2.24-3.86,6-3.86h39.54c0,.05,0,.1,0,.15-3.6,16.8-39.13,70.33-51,87-.19.25-.37.53-.55.8-5.23,8.54-9.48,18,.72,31.26h0c.93,1.12,3.34,3.74,6.87,7.39,10.94,11.3,48.47,49.92,51.8,65.28-2.21.36-4.61.1-41.8.18-7.93,0-14.12-11.84-37.75-35.68-21.25-20.67-35-29.12-47.6-29.12C315,453.16,316.78,473,317,496.89c.09,26-.07,17.74.1,19.37-1.42.56-5.5,1.68-16.14,1.68-101.52,0-167.63-161.13-170.18-191.93.88-.08,13,0,40.74-.05Z" transform="translate(-106.64 -301.94)"/></g></g></svg>