<svg xmlns="http://www.w3.org/2000/svg" xmlns:xlink="http://www.w3.org/1999/xlink" viewBox="0 0 384 383.99"><defs><style>.cls-1{fill:none;}.cls-2{fill:#e1fafa;}.cls-3{fill:#cad9fc;}.cls-4{fill:#7dc9c8;}.cls-5{fill:#6eb7b3;}.cls-6{fill:#a6e2df;}.cls-7{fill:#fff;}.cls-8{clip-path:url(#clip-path);}.cls-9{fill:#01abaa;}</style><clipPath id="clip-path" transform="translate(0 0)"><rect class="cls-1" width="384" height="384"/></clipPath></defs><title>servis</title><g id="Слой_2" data-name="Слой 2"><g id="Слой_1-2" data-name="Слой 1"><path class="cls-2" d="M192,377.6H102.4v-53c1.92-.9,3.84-1.86,5.63-2.88a106.8,106.8,0,0,0,20-14.53v25.34c0,6.66,6.4,45.06,64,45.06Z" transform="translate(0 0)"/><path class="cls-2" d="M281.6,324.61v53H192c57.6,0,64-38.4,64-45.06V307.2a106.8,106.8,0,0,0,20,14.53c1.79,1,3.71,2,5.63,2.88Z" transform="translate(0 0)"/><path class="cls-2" d="M282.18,160.9c-1.8,27.07-6.4,35.71-6.4,52.73,0,3.46.12,6.85.25,10.18.9,20.35,2.56,38.85-19.58,59.9l-.45.45c-25.34,24.45-25.47,48.64-51.14,48.64H179.14c-25.67,0-25.8-24.19-51.14-48.64l-.45-.45c-22.14-21-20.48-39.55-19.58-59.9.13-3.33.25-6.72.25-10.18,0-17-4.6-25.66-6.4-52.73-.13-1.92-.25-4-.32-6.08C127.23,158.15,156.16,128,192,128s64.77,30.15,90.5,26.82c-.07,2.11-.2,4.16-.32,6.08Z" transform="translate(0 0)"/><path class="cls-2" d="M377.6,377.6H307.2V332.41a129.59,129.59,0,0,1,20.35,9.8c9,5.06,18.11,10,27.27,14.84,6.46,3.46,17.21,7.11,21.05,13.7a13.81,13.81,0,0,1,1.73,6.85Z" transform="translate(0 0)"/><path class="cls-2" d="M76.8,332.41V377.6H6.4a13.81,13.81,0,0,1,1.73-6.85c3.84-6.59,14.59-10.24,21-13.7,9.16-4.86,18.31-9.78,27.27-14.84a129.59,129.59,0,0,1,20.35-9.8Z" transform="translate(0 0)"/><path class="cls-2" d="M288,153.6a27.32,27.32,0,0,1-5.5,1.22C256.77,158.15,227.84,128,192,128s-64.77,30.15-90.5,26.82A27.32,27.32,0,0,1,96,153.6c-19.2-6.4-12.8-32-6.4-44.8A24,24,0,0,1,92,105c9-12.29,30.85-23.23,56.57-29.31a182.51,182.51,0,0,1,86.92,0C261.18,81.73,283,92.67,292,105a24,24,0,0,1,2.37,3.84c6.4,12.8,12.8,38.4-6.4,44.8Z" transform="translate(0 0)"/><path class="cls-3" d="M172.8,128c-29.44,0-54.2,20.29-76.36,25.72a26.73,26.73,0,0,0,5.06,1.1c23.39,3,49.44-21.54,80.9-26a68.52,68.52,0,0,0-9.6-.77Z" transform="translate(0 0)"/><path class="cls-4" d="M294.4,108.8A24,24,0,0,0,292,105c-9-12.29-30.85-23.23-56.57-29.31A187.71,187.71,0,0,0,192,70.4c-3.2,0-6.4.13-9.6.31a189.81,189.81,0,0,1,33.86,4.94c25.72,6.08,47.55,17,56.57,29.31a24.78,24.78,0,0,1,2.37,3.84c6.4,12.8,12.8,38.4-6.4,44.8l-.44.12a38.52,38.52,0,0,0,14.14,1.1,27.32,27.32,0,0,0,5.5-1.22c19.2-6.4,12.8-32,6.4-44.8Z" transform="translate(0 0)"/><path class="cls-4" d="M292,105c-9-12.29-30.85-23.23-56.57-29.31C232.51,57,222.91,24.06,192,6.4c38.4,0,75.27,16.19,89.6,44.8A111.72,111.72,0,0,1,292,105Z" transform="translate(0 0)"/><path class="cls-5" d="M281.6,51.2C267.27,22.59,230.4,6.4,192,6.4c1,.58,2,1.22,2.93,1.84,29.79,5,55.95,19.92,67.47,43a103.29,103.29,0,0,1,10.08,38.17A59.94,59.94,0,0,1,292,105,111.72,111.72,0,0,0,281.6,51.2Z" transform="translate(0 0)"/><path class="cls-4" d="M192,6.4C161.09,24.06,151.49,57,148.54,75.65,122.82,81.73,101,92.67,92,105A111.72,111.72,0,0,1,102.4,51.2C116.73,22.59,153.6,6.4,192,6.4Z" transform="translate(0 0)"/><path class="cls-2" d="M235.46,75.65a182.51,182.51,0,0,0-86.92,0C151.49,57,161.09,24.06,192,6.4,222.91,24.06,232.51,57,235.46,75.65Z" transform="translate(0 0)"/><path class="cls-4" d="M102.4,321.79V377.6H76.8V325a6.39,6.39,0,0,1,4.86-6.2l12.8-3.2a6.4,6.4,0,0,1,7.94,6.2Z" transform="translate(0 0)"/><path class="cls-4" d="M307.2,325V377.6H281.6V321.79a6.4,6.4,0,0,1,7.93-6.2l12.81,3.2a6.39,6.39,0,0,1,4.86,6.2Z" transform="translate(0 0)"/><path class="cls-6" d="M256,284.16v48.38c0,6.66-6.4,45.06-64,45.06s-64-38.4-64-45.06V284.16c25.34,24.45,25.47,48.64,51.14,48.64h25.72c25.67,0,25.8-24.19,51.14-48.64Z" transform="translate(0 0)"/><path class="cls-7" d="M48.38,357.05C80.84,339.81,84,336.75,96,332.41V325a6.39,6.39,0,0,1,4.86-6.2l.64-.17a6.32,6.32,0,0,0-7-3l-12.8,3.2A6.39,6.39,0,0,0,76.8,325v7.42c-12,4.34-15.16,7.4-47.62,24.64-10.9,5.83-22.45,8.52-22.78,20.55H25.6c.33-12,11.88-14.72,22.78-20.55Z" transform="translate(0 0)"/><path class="cls-7" d="M101.5,154.82c.71,23.44,6.72,43.91,6.72,58.81,0,25.21-6.28,45.74,19.33,70.08.64.64.45-2.14.45,23.49a95.47,95.47,0,0,1-10.64,8.6,6.36,6.36,0,0,1,4.24,6v2.82a102.17,102.17,0,0,0,25.6-17.41c0-25.6.2-22.84-.45-23.49-25.6-24.32-19.32-44.87-19.32-70.08,0-14.9-6-35.37-6.73-58.81-22-2.28-21.83-26.18-11.9-46a24.78,24.78,0,0,1,2.37-3.84A111.72,111.72,0,0,1,121.6,51.2c13.67-27.26,46-42,80-44.36-40.37-2.78-83,12-99.2,44.36A111.72,111.72,0,0,0,92,105a24,24,0,0,0-2.37,3.84c-9.93,19.84-10.12,43.74,11.9,46Z" transform="translate(0 0)"/><g class="cls-8"><path class="cls-7" d="M136.91,11.63l5.39,11.62a70.51,70.51,0,0,0-34.18,30.82L96.68,48.31a83.2,83.2,0,0,1,40.23-36.68Z" transform="translate(0 0)"/><path class="cls-9" d="M362.5,353.69c-1.69-.79-3.28-1.54-4.68-2.28-9.11-4.85-18.21-9.75-27.08-14.73a146.16,146.16,0,0,0-17.14-8.63V325a12.81,12.81,0,0,0-9.7-12.43l-12.8-3.2A12.52,12.52,0,0,0,277.21,315a102.47,102.47,0,0,1-14.81-10.7V286.8c21.19-21.08,21.06-40.56,20.22-59.39a57.47,57.47,0,0,0,23.64-37.73c2.16-20.14.79-33.12-4-38.88a23.22,23.22,0,0,0,2.64-4.75c5.12-12.3.6-29.3-4.8-40.11a31,31,0,0,0-1.68-2.77,115.37,115.37,0,0,0-11.13-54.84C272.64,19,235.2,0,192,0a132.58,132.58,0,0,0-55.09,11.64,6.24,6.24,0,0,0-3,8.67,6.59,6.59,0,0,0,8.41,2.94,112.36,112.36,0,0,1,28.47-8.53A107.89,107.89,0,0,0,143,70.32,134.22,134.22,0,0,0,98.67,89.79a96,96,0,0,1,9.49-35.73A6.4,6.4,0,0,0,96.7,48.34a115.59,115.59,0,0,0-11.12,54.83c-.58.92-1.21,1.83-1.68,2.77-5.4,10.81-9.9,27.81-4.8,40.11a24.1,24.1,0,0,0,2.65,4.76c-4.77,5.76-6.13,18.76-4,39a57.36,57.36,0,0,0,23.61,37.53c-.84,18.84-1,38.32,20.22,59.39v17.55A103.8,103.8,0,0,1,106.82,315a12.5,12.5,0,0,0-13.89-5.67l-12.8,3.2A12.81,12.81,0,0,0,70.4,325v3.05a147.69,147.69,0,0,0-17.1,8.59c-8.91,5-18,9.93-27.13,14.78-1.38.73-3,1.48-4.65,2.27A41.09,41.09,0,0,0,2.61,367.51,20.19,20.19,0,0,0,0,377.43a6.48,6.48,0,0,0,1.88,4.64A6.57,6.57,0,0,0,6.53,384H377.6a6.42,6.42,0,0,0,6.4-6.57,20.18,20.18,0,0,0-2.59-9.9,41,41,0,0,0-18.91-13.83ZM192,371.2c-56,0-57.6-38.27-57.6-38.66V301c3.41,4.48,6.26,8.84,8.92,12.92,8.79,13.55,16.4,25.25,35.82,25.25h25.72c19.42,0,27-11.7,35.84-25.25,2.65-4.08,5.51-8.43,8.92-12.92v31.51c0,.39-1.59,38.66-57.62,38.66ZM293.56,188.08a48.43,48.43,0,0,1-11.3,23,121.15,121.15,0,0,1,2.33-18.88A253.45,253.45,0,0,0,288.35,164a13.45,13.45,0,0,1,4.69-4.21,89.11,89.11,0,0,1,.52,28.32Zm-17.69-134a96.05,96.05,0,0,1,9.46,35.74A134.19,134.19,0,0,0,241,70.34a107.84,107.84,0,0,0-28-55.87c29.07,4.73,52.7,19.24,62.89,39.59ZM192,13.88a86,86,0,0,1,35.25,53.37,192.5,192.5,0,0,0-70.5,0A86,86,0,0,1,192,13.88Zm0,62.92c45.35,0,88.45,18.41,96.64,34.86,4.39,8.77,7.68,21.76,4.43,29.5a10.79,10.79,0,0,1-7.12,6.37c-11.73,3.91-25.39-2.6-41.18-10.15-15.45-7.4-33-15.78-52.77-15.78s-37.32,8.38-52.8,15.78c-15.79,7.55-29.44,14.08-41.18,10.15a10.8,10.8,0,0,1-7.13-6.37c-3.2-7.75,0-20.73,4.44-29.5C103.55,95.21,146.64,76.8,192,76.8ZM90.47,188.31A90.54,90.54,0,0,1,91,159.76,13.83,13.83,0,0,1,95.65,164a255.82,255.82,0,0,0,3.76,28.27,121.15,121.15,0,0,1,2.33,18.88,48.45,48.45,0,0,1-11.27-22.83ZM112,190a235.67,235.67,0,0,1-3.72-28.64,105.16,105.16,0,0,0,36.42-12.43c15-7.14,30.42-14.53,47.29-14.53s32.33,7.39,47.29,14.53a105.18,105.18,0,0,0,36.43,12.41A240.3,240.3,0,0,1,272,190a123.56,123.56,0,0,0-2.62,23.63c0,4.26.19,8.42.38,12.51.89,19.32,1.59,34.59-17.72,52.94A144.5,144.5,0,0,0,230,307c-8.75,13.47-13.12,19.42-25.09,19.42H179.14c-12,0-16.34-5.95-25.09-19.42A144.92,144.92,0,0,0,132,279.07c-19.3-18.34-18.6-33.61-17.71-52.93.19-4.09.37-8.25.37-12.51A123.56,123.56,0,0,0,112,190ZM27,365.27c1.89-.89,3.68-1.74,5.23-2.56,9.2-4.89,18.4-9.85,27.45-14.95,4-2.28,7.48-4.14,10.76-5.71V371.2H16.26A59.12,59.12,0,0,1,27,365.27ZM83.2,371.2V325L96,321.8v49.4Zm25.6,0V328.58c.79-.41,1.58-.82,2.31-1.24a100.74,100.74,0,0,0,10.49-6.7v11.9A50.14,50.14,0,0,0,144,371.2Zm153.6-38.66v-11.9a98.29,98.29,0,0,0,10.39,6.64c.76.44,1.61.82,2.41,1.24V371.2H240a50.14,50.14,0,0,0,22.36-38.66ZM288,371.2V321.8l12.8,3.2v46.2Zm25.6,0V342.05c3.28,1.57,6.81,3.43,10.8,5.76,9,5.08,18.21,10,27.4,14.92,1.56.84,3.35,1.68,5.24,2.56a59.65,59.65,0,0,1,10.7,5.91Z" transform="translate(0 0)"/></g><path class="cls-9" d="M118.17,37.52a6.4,6.4,0,0,1-.07-12.8h.07a6.4,6.4,0,1,1,0,12.8Z" transform="translate(0 0)"/></g></g></svg>