<?xml version="1.0" encoding="utf-8"?>
<!-- Generator: Adobe Illustrator 24.0.2, SVG Export Plug-In . SVG Version: 6.00 Build 0)  -->
<svg version="1.1" id="Слой_1" xmlns="http://www.w3.org/2000/svg" xmlns:xlink="http://www.w3.org/1999/xlink" x="0px" y="0px"
	 viewBox="0 0 612 792" style="enable-background:new 0 0 612 792;" xml:space="preserve">
<style type="text/css">
	.st0{fill:#E1FAFA;}
	.st1{fill:#92E0DC;}
	.st2{fill:#E8EDFC;}
	.st3{fill:#FFFFFF;}
	.st4{clip-path:url(#SVGID_2_);fill:#01ABAA;}
	.st5{fill:#01ABAA;}
</style>
<g>
	<path class="st0" d="M440.4,402.4v166.4c0,7.1-5.7,12.8-12.8,12.8H184.4c-7.1,0-12.8-5.7-12.8-12.8V402.4L306,268L440.4,402.4z
		 M440.4,402.4"/>
	<path class="st1" d="M306,268l-9.6,9.6l124.8,124.8v166.4c0,7.1-5.7,12.8-12.8,12.8h19.2c7.1,0,12.8-5.7,12.8-12.8V402.4L306,268z
		 M306,268"/>
	<path class="st0" d="M485.2,402.4h-44.8L306,268L171.6,402.4h-44.8c-2.6,0-5-1.5-5.9-3.9c-1-2.4-0.4-5.2,1.4-7l179.2-179.2
		c2.5-2.5,6.6-2.5,9.1,0l179.2,179.2c1.8,1.8,2.4,4.6,1.4,7C490.2,400.9,487.8,402.4,485.2,402.4L485.2,402.4z M485.2,402.4"/>
	<path class="st1" d="M489.7,391.5L310.5,212.3c-2.5-2.5-6.6-2.5-9.1,0l-5.1,5.1l174.1,174.1c1.8,1.8,2.4,4.6,1.4,7
		c-1,2.4-3.3,4-5.9,3.9h19.2c2.6,0,5-1.5,5.9-3.9C492.1,396.1,491.6,393.3,489.7,391.5L489.7,391.5z M489.7,391.5"/>
	<path class="st0" d="M216.4,268v29.3l-51.2,51.2V268c0-3.5,2.9-6.4,6.4-6.4H210C213.5,261.6,216.4,264.5,216.4,268L216.4,268z
		 M216.4,268"/>
	<path class="st2" d="M325.2,408.8v42.8c-12.1-5.8-26.3-5.8-38.4,0v-42.8H325.2z M325.2,408.8"/>
	<path class="st2" d="M408.4,498.4V524c0,3.5-2.9,6.4-6.4,6.4h-25.6c-3.5,0-6.4-2.9-6.4-6.4v-12.8h-23.6
		c-7.4,15.6-23.2,25.6-40.4,25.6s-33-10-40.4-25.6H242v70.4h-38.4v-83.2c0-14.1,11.5-25.6,25.6-25.6h36.4
		c7.4-15.6,23.2-25.5,40.4-25.5s33,9.9,40.4,25.5h36.4C396.9,472.8,408.4,484.3,408.4,498.4L408.4,498.4z M408.4,498.4"/>
	<path class="st2" d="M382.8,396c0,11.6-7.8,21.7-19,24.7c-11.2,3-23-1.9-28.8-11.9h-58.1c-5.8,10-17.6,14.9-28.8,11.9
		c-11.2-3-19-13.1-19-24.7s7.8-21.7,19-24.7c11.2-3,23,1.9,28.8,11.9h58.1c5.8-10,17.6-14.9,28.8-11.9
		C375,374.3,382.8,384.4,382.8,396L382.8,396z M382.8,396"/>
	<path class="st2" d="M286.8,498.4c-3.5,0-6.4-2.9-6.4-6.4c-0.2-6.8,2.4-13.5,7.3-18.3c4.8-4.8,11.5-7.5,18.3-7.3
		c3.5,0,6.4,2.8,6.4,6.4c0,3.5-2.8,6.4-6.4,6.4c-3.5-0.2-6.9,1-9.3,3.5c-2.5,2.4-3.7,5.8-3.5,9.3
		C293.2,495.5,290.3,498.4,286.8,498.4L286.8,498.4z M286.8,498.4"/>
	<path class="st3" d="M141.5,391.5l42.9-42.9V268c0-3.5,2.9-6.4,6.4-6.4h-19.2c-3.5,0-6.4,2.9-6.4,6.4v80.5l-42.9,42.9
		c-1.8,1.8-2.4,4.6-1.4,7c1,2.4,3.3,4,5.9,3.9H146c-2.6,0-4.9-1.5-5.9-3.9C139.1,396.1,139.6,393.3,141.5,391.5L141.5,391.5z
		 M141.5,391.5"/>
	<path class="st3" d="M184.4,581.6h19.2c-7.1,0-12.8-5.7-12.8-12.8V402.4h-19.2v166.4C171.6,575.9,177.3,581.6,184.4,581.6
		L184.4,581.6z M184.4,581.6"/>
	<rect x="165.2" y="517.6" class="st3" width="12.8" height="51.2"/>
	<g>
		<defs>
			<rect id="SVGID_1_" x="114" y="204" width="384" height="384"/>
		</defs>
		<clipPath id="SVGID_2_">
			<use xlink:href="#SVGID_1_"  style="overflow:visible;"/>
		</clipPath>
		<path class="st4" d="M171.7,549.6c-3.5,0-6.4-2.8-6.4-6.4c0-3.5,2.8-6.4,6.4-6.4h0.1c3.5,0,6.4,2.9,6.4,6.4
			C178.1,546.7,175.3,549.6,171.7,549.6L171.7,549.6z M171.7,549.6"/>
		<path class="st4" d="M315.1,207.7c-5.1-4.8-13.1-4.8-18.1,0l-74.1,74.1V268c0-7.1-5.7-12.8-12.8-12.8h-38.4
			c-7.1,0-12.8,5.7-12.8,12.8v77.9l-41.1,41.1c-3.7,3.7-4.8,9.2-2.8,14c2,4.8,6.7,7.9,11.9,7.9h38.4v108.8c0,3.5,2.9,6.4,6.4,6.4
			c3.5,0,6.4-2.9,6.4-6.4V405.1l128-128l128,128v163.8c0,3.5-2.9,6.4-6.4,6.4H248.4v-57.6h13.3c9.1,15.8,26,25.6,44.3,25.6
			s35.2-9.8,44.3-25.6h13.3v6.4c0,7.1,5.7,12.8,12.8,12.8H402c7.1,0,12.8-5.7,12.8-12.8v-25.6c0-17.7-14.3-32-32-32h-32.5
			c-4.5-7.7-10.9-14.1-18.7-18.6v-32.6c8.3,11,22.7,15.5,35.7,11.2c13.1-4.4,21.9-16.6,21.9-30.4s-8.8-26-21.9-30.4
			c-13.1-4.4-27.5,0.1-35.7,11.2h-51.2c-8.3-11-22.7-15.5-35.7-11.2c-13.1,4.4-21.9,16.6-21.9,30.4s8.8,26,21.9,30.4
			c13.1,4.4,27.5-0.1,35.7-11.2v32.6c-7.8,4.4-14.2,10.8-18.7,18.6h-32.5c-17.7,0-32,14.3-32,32v76.8h-12.8c-3.5,0-6.4-2.9-6.4-6.4
			c0-3.5-2.9-6.4-6.4-6.4c-3.5,0-6.4,2.9-6.4,6.4c0,10.6,8.6,19.2,19.2,19.2h243.2c10.6,0,19.2-8.6,19.2-19.2v-160h38.4
			c5.2,0,9.9-3.1,11.9-7.9c2-4.8,0.9-10.3-2.8-14L315.1,207.7z M276.9,402.4c-2.3,0-4.4,1.2-5.6,3.2c-4.3,7.5-13.2,11.2-21.6,8.9
			c-8.4-2.3-14.2-9.9-14.2-18.5s5.8-16.3,14.2-18.5c8.4-2.2,17.3,1.4,21.6,8.9c1.1,2,3.3,3.2,5.6,3.2h58.1c2.3,0,4.4-1.2,5.5-3.2
			c4.3-7.5,13.2-11.2,21.6-8.9c8.4,2.3,14.2,9.9,14.2,18.5s-5.8,16.3-14.2,18.5c-8.4,2.2-17.3-1.4-21.6-8.9c-1.1-2-3.3-3.2-5.5-3.2
			H276.9z M318.8,415.2v27.3c-8.4-2.2-17.2-2.2-25.6,0v-27.3H318.8z M210,575.2v-76.8c0-10.6,8.6-19.2,19.2-19.2h36.4
			c2.5,0,4.8-1.4,5.8-3.7c9.1-19.1,32-27.2,51.1-18.1c8,3.7,14.4,10.2,18.1,18.1c1.1,2.3,3.3,3.7,5.8,3.7h36.4
			c10.6,0,19.2,8.6,19.2,19.2V524h-25.6v-12.8c0-3.5-2.9-6.4-6.4-6.4h-23.6c-2.5,0-4.7,1.4-5.8,3.7c-6.3,13.4-19.8,21.9-34.7,21.9
			c-14.8,0-28.3-8.5-34.7-21.9c-1.1-2.2-3.3-3.7-5.8-3.7H242c-3.5,0-6.4,2.9-6.4,6.4v64H210z M171.6,268H210v26.7l-38.4,38.4V268z
			 M443.1,396L310.5,263.5c-2.5-2.5-6.5-2.5-9,0L168.9,396h-42.1L306,216.8L485.2,396H443.1z M443.1,396"/>
	</g>
	<path class="st5" d="M286.8,498.4c3.5,0,6.4-2.9,6.4-6.4c-0.2-3.5,1.1-6.9,3.5-9.3c2.5-2.5,5.9-3.7,9.3-3.5c3.5,0,6.4-2.9,6.4-6.4
		c0-3.5-2.9-6.4-6.4-6.4c-6.8-0.2-13.5,2.4-18.3,7.3c-4.8,4.8-7.5,11.5-7.3,18.3C280.4,495.5,283.3,498.4,286.8,498.4L286.8,498.4z
		 M286.8,498.4"/>
</g>
</svg>
