<?xml version="1.0" encoding="utf-8"?>
<!-- Generator: Adobe Illustrator 24.0.2, SVG Export Plug-In . SVG Version: 6.00 Build 0)  -->
<svg version="1.1" id="Слой_1" xmlns="http://www.w3.org/2000/svg" xmlns:xlink="http://www.w3.org/1999/xlink" x="0px" y="0px"
	 viewBox="0 0 612 792" style="enable-background:new 0 0 612 792;" xml:space="preserve">
<style type="text/css">
	.st0{fill:#E1FAFA;}
	.st1{fill:#CAEFED;}
	.st2{fill:#E8EDFC;}
	.st3{fill:#92E0DC;}
	.st4{fill:#7DC9C8;}
	.st5{fill:#01ABAA;}
	.st6{fill:#FFFFFF;}
	.st7{clip-path:url(#SVGID_2_);fill:#FFFFFF;}
	.st8{clip-path:url(#SVGID_2_);fill:#01ABAA;}
</style>
<g>
	<path class="st0" d="M325.2,287.2H210v25.6h-76.8v-51.2c0-28.3,22.9-51.2,51.2-51.2h179.2L325.2,287.2z M325.2,287.2"/>
	<path class="st0" d="M491.6,319.5c-0.2,35.5-26.7,65.3-61.9,69.6c-35.2,4.3-68.2-18.2-76.9-52.6c-13.6-57,46-110.6,63.6-124.5
		c2.8-2.2,6.8-2.2,9.7,0C442,224.6,491.6,269.5,491.6,319.5L491.6,319.5z M491.6,319.5"/>
	<path class="st1" d="M426.1,212.1c-2.8-2.2-6.8-2.3-9.7,0c-1.4,1.1-3,2.4-4.8,3.9c19.2,16.3,60.8,57.7,60.8,103.5
		c-0.1,35.1-26.1,64.7-60.9,69.4c20.1,2.8,40.5-3.2,55.8-16.5c15.4-13.3,24.2-32.6,24.3-52.9C491.6,269.5,442,224.6,426.1,212.1
		L426.1,212.1z M426.1,212.1"/>
	<path class="st0" d="M222.8,319.2v25.6H120.4v-25.6c0-3.5,2.9-6.4,6.4-6.4h89.6C219.9,312.8,222.8,315.7,222.8,319.2L222.8,319.2z
		 M222.8,319.2"/>
	<path class="st0" d="M222.8,344.8v25.6c0,3.5-2.9,6.4-6.4,6.4h-89.6c-3.5,0-6.4-2.9-6.4-6.4v-25.6H222.8z M222.8,344.8"/>
	<path class="st2" d="M325.2,415.2v166.4h-25.6c-7.1,0-12.8-5.7-12.8-12.8v-26.1c17.1-27.1,17.1-61.5,0-88.6V428
		c0-7.1,5.7-12.8,12.8-12.8H325.2z M325.2,415.2"/>
	<path class="st2" d="M478.8,581.6h-25.6V415.2h25.6c7.1,0,12.8,5.7,12.8,12.8v140.8C491.6,575.9,485.9,581.6,478.8,581.6
		L478.8,581.6z M478.8,581.6"/>
	<path class="st1" d="M478.8,415.2h-19.2c7.1,0,12.8,5.7,12.8,12.8v140.8c0,7.1-5.7,12.8-12.8,12.8h19.2c7.1,0,12.8-5.7,12.8-12.8
		V428C491.6,420.9,485.9,415.2,478.8,415.2L478.8,415.2z M478.8,415.2"/>
	<rect x="325.2" y="415.2" class="st3" width="128" height="166.4"/>
	<rect x="325.2" y="440.8" class="st4" width="128" height="115.2"/>
	<rect x="325.2" y="479.2" class="st3" width="128" height="38.4"/>
	<path class="st0" d="M299.6,498.4c0,41-29.8,75.8-70.2,82.2c-40.5,6.4-79.5-17.6-92.1-56.6c-2.7-8.3-4-16.9-4-25.6V376.8H210v38.7
		c2.1-0.2,4.3-0.3,6.4-0.3C262.3,415.2,299.6,452.5,299.6,498.4L299.6,498.4z M299.6,498.4"/>
	<path class="st2" d="M242,498.4c0,14.1-11.5,25.6-25.6,25.6c-14.1,0-25.6-11.5-25.6-25.6c0-14.1,11.5-25.6,25.6-25.6
		C230.5,472.8,242,484.3,242,498.4L242,498.4z M242,498.4"/>
	<path class="st5" d="M413.4,369.8c-0.3,0-0.7,0-1-0.1c-19.9-3.3-36-18-40.9-37.6c-0.5-2.2,0.2-4.6,1.8-6.1c1.7-1.6,4-2.1,6.2-1.5
		c2.2,0.7,3.9,2.4,4.4,4.7c3.7,14.5,15.7,25.5,30.5,27.9c3.3,0.5,5.6,3.5,5.4,6.8C419.5,367.2,416.7,369.8,413.4,369.8L413.4,369.8z
		 M413.4,369.8"/>
	<path class="st6" d="M126.8,376.8h6.4v121.6c-0.1,23.8,10.1,46.4,27.8,62.2c17.8,15.8,41.4,23.2,65,20.4
		c-42-4.9-73.6-40.4-73.6-82.6V376.8H146c-3.5,0-6.4-2.9-6.4-6.4v-51.2c0-3.5,2.9-6.4,6.4-6.4h6.4v-51.2c0-28.3,22.9-51.2,51.2-51.2
		h-19.2c-28.3,0-51.2,22.9-51.2,51.2v51.2h-6.4c-3.5,0-6.4,2.9-6.4,6.4v51.2C120.4,373.9,123.3,376.8,126.8,376.8L126.8,376.8z
		 M126.8,376.8"/>
	<g>
		<defs>
			<rect id="SVGID_1_" x="114" y="204" width="384" height="384"/>
		</defs>
		<clipPath id="SVGID_2_">
			<use xlink:href="#SVGID_1_"  style="overflow:visible;"/>
		</clipPath>
		<rect x="126.8" y="447.2" class="st7" width="12.8" height="51.2"/>
		<path class="st8" d="M430,207.1c-5.1-4.1-12.4-4.1-17.5,0c-13.7,10.7-81,67.4-65.9,131c7.4,29.6,31.6,52,61.7,57
			c4.2,0.7,8.5,1,12.8,1c20.4,0.1,39.9-7.9,54.4-22.3c14.4-14.4,22.6-33.9,22.6-54.2C498,262.1,437,212.5,430,207.1L430,207.1z
			 M462.7,368c-14.5,12.2-33.7,17.5-52.4,14.3c-25-4.1-45.1-22.7-51.3-47.2c-13.6-57.2,53.6-111.9,61.3-118c0.2-0.2,0.5-0.3,0.8-0.3
			c0.3,0,0.7,0.1,0.9,0.3c6.4,5.1,63.1,51,63.1,102.4C485.2,338.2,477,355.9,462.7,368L462.7,368z M462.7,368"/>
		<path class="st8" d="M478.8,408.8H299.6c-10.6,0-19.2,8.6-19.2,19.2v7.8c-16.8-17.3-39.9-27-64-27v-25.6c7.1,0,12.8-5.7,12.8-12.8
			v-51.2c0-7.1-5.7-12.8-12.8-12.8v-12.8h108.8c3.5,0,6.4-2.9,6.4-6.4s-2.9-6.4-6.4-6.4H210c-3.5,0-6.4,2.9-6.4,6.4v19.2h-64v-44.8
			c0-24.7,20.1-44.8,44.8-44.8h179.2c3.5,0,6.4-2.9,6.4-6.4c0-3.5-2.9-6.4-6.4-6.4H184.4c-31.8,0-57.6,25.8-57.6,57.6v44.8
			c-7.1,0-12.8,5.7-12.8,12.8v51.2c0,7.1,5.7,12.8,12.8,12.8v64c0,3.5,2.9,6.4,6.4,6.4c3.5,0,6.4-2.9,6.4-6.4v-64h64v32.3
			c0,1.8,0.8,3.6,2.2,4.8c1.4,1.2,3.2,1.8,5,1.6c1.9-0.2,3.8-0.3,5.6-0.3c39.3,0,72.3,29.7,76.4,68.8c4.1,39.1-22,75-60.5,83.1
			s-76.9-14.1-89-51.5c-2.5-7.6-3.7-15.6-3.7-23.6c0-3.5-2.9-6.4-6.4-6.4c-3.5,0-6.4,2.9-6.4,6.4c0,2.4,0.1,4.7,0.3,7
			c0.5,7,1.9,13.9,4.1,20.5c9.6,29.9,34.2,52.5,64.7,59.7c30.5,7.2,62.6-2.2,84.5-24.6v7.8c0,10.6,8.6,19.2,19.2,19.2h179.2
			c10.6,0,19.2-8.6,19.2-19.2V428C498,417.4,489.4,408.8,478.8,408.8L478.8,408.8z M126.8,319.2h89.6v19.2h-89.6V319.2z
			 M133.2,370.4h-6.4v-19.2h89.6v19.2H133.2z M331.6,485.6h115.2v25.6H331.6V485.6z M446.8,472.8H331.6v-25.6h115.2V472.8z
			 M331.6,524h115.2v25.6H331.6V524z M446.8,434.4H331.6v-12.8h115.2V434.4z M293.2,568.8v-24.5c17.1-28.2,17.1-63.6,0-91.8V428
			c0-3.5,2.9-6.4,6.4-6.4h19.2v153.6h-19.2C296.1,575.2,293.2,572.3,293.2,568.8L293.2,568.8z M331.6,562.4h115.2v12.8H331.6V562.4z
			 M485.2,568.8c0,3.5-2.9,6.4-6.4,6.4h-19.2V421.6h19.2c3.5,0,6.4,2.9,6.4,6.4V568.8z M485.2,568.8"/>
	</g>
	<path class="st5" d="M133.3,479.2c-3.5,0-6.4-2.8-6.4-6.4c0-3.5,2.8-6.4,6.4-6.4h0.1c3.5,0,6.4,2.9,6.4,6.4
		S136.9,479.2,133.3,479.2L133.3,479.2z M133.3,479.2"/>
	<path class="st5" d="M189.7,480.8c-30.4,4.9-36.4,20.2-37,22c-1.1,3.3,0.7,6.8,3.9,7.9c0.7,0.3,1.4,0.4,2.2,0.4c2.6,0,5-1.6,6-4.1
		c0-0.1,3.5-7.9,20-12.2c-0.2,1.2-0.3,2.4-0.4,3.5c0,2.2,0.2,4.3,0.6,6.5c-18,24.9-11.4,40-10.6,41.7c1.1,2.1,3.2,3.5,5.6,3.4
		c0.9,0,1.9-0.2,2.7-0.6c3.1-1.5,4.5-5.2,3.2-8.4c0-0.1-3.1-8,5.5-22.7c2.1,2.6,4.5,4.9,7.3,6.8c4.9,30.4,20.2,36.4,22,37
		c3.3,1.1,6.8-0.6,7.9-3.9c1.2-3.3-0.5-6.9-3.7-8.2c-0.1,0-7.9-3.5-12.2-20c1.2,0.2,2.4,0.3,3.6,0.4c2.2,0,4.3-0.2,6.5-0.6
		c9,7.4,20.2,11.8,31.9,12.5c3.4,0.1,6.7-0.5,9.8-1.9c3-1.5,4.3-5.2,2.8-8.3c-1.5-3.1-5.2-4.6-8.4-3.2c-0.1,0-8,3.1-22.7-5.5
		c2.6-2,4.9-4.5,6.8-7.3c30.4-4.9,36.4-20.2,37-22c1.1-3.3-0.7-6.8-3.9-7.9c-3.3-1.1-6.9,0.5-8.2,3.7c0,0.1-3.5,7.9-20,12.2
		c0.2-1.2,0.3-2.4,0.4-3.6c0-2.2-0.2-4.3-0.6-6.4c18-24.9,11.4-40,10.6-41.7c-1.5-3-5.2-4.3-8.3-2.8c-3.1,1.5-4.5,5.2-3.2,8.4
		c0,0.1,3.1,8-5.5,22.7c-2.1-2.6-4.5-4.9-7.3-6.8c-4.9-30.4-20.2-36.4-22-37c-3.3-1.1-6.8,0.7-7.9,3.9c-1.2,3.3,0.5,6.9,3.7,8.2
		c0.1,0,7.9,3.5,12.2,20c-1.2-0.2-2.4-0.3-3.6-0.4c-2.2,0-4.3,0.2-6.4,0.6c-24.9-18-40-11.5-41.7-10.6c-3,1.5-4.3,5.2-2.8,8.3
		c1.5,3.1,5.2,4.6,8.4,3.2c0.1,0,8-3.1,22.7,5.5C193.9,475.5,191.6,478,189.7,480.8L189.7,480.8z M235.6,498.4
		c0,10.6-8.6,19.2-19.2,19.2c-10.6,0-19.2-8.6-19.2-19.2c0-10.6,8.6-19.2,19.2-19.2C227,479.2,235.6,487.8,235.6,498.4L235.6,498.4z
		 M235.6,498.4"/>
</g>
</svg>
